<svg xmlns="http://www.w3.org/2000/svg" xmlns:xlink="http://www.w3.org/1999/xlink" width="288.5" height="275.552" viewBox="0 0 288.5 275.552">
  <defs>
    <linearGradient id="linear-gradient" x1="0.5" x2="0.5" y2="1" gradientUnits="objectBoundingBox">
      <stop offset="0" stop-color="#0b7f8c"/>
      <stop offset="1" stop-color="#085860"/>
    </linearGradient>
    <filter id="Path_14360" x="109.379" y="180.803" width="69.742" height="70.426" filterUnits="userSpaceOnUse">
      <feOffset dy="3" input="SourceAlpha"/>
      <feGaussianBlur stdDeviation="3" result="blur"/>
      <feFlood flood-opacity="0.161"/>
      <feComposite operator="in" in2="blur"/>
      <feComposite in="SourceGraphic"/>
    </filter>
  </defs>
  <g id="Group_26723" data-name="Group 26723" transform="translate(-44.5 -117)">
    <g id="Group_26722" data-name="Group 26722" transform="translate(0 -40.509)">
      <g id="Plant" transform="translate(44.5 157.509)">
        <path id="Path_11" data-name="Path 11" d="M291.954,97.324l7.3-31.039a4.734,4.734,0,0,1,2.167-3.847,2.892,2.892,0,0,1,1.923-.186l17.382,4.424a2.783,2.783,0,0,1,2.116,2.231l.943,4.693,22.736,5.771a4.25,4.25,0,0,1,3.591,5.514l-6.931,26.185a6.25,6.25,0,0,1-7.053,3.994l-40.189-10.22C293.185,104.152,291.467,101.126,291.954,97.324Z" transform="translate(-118.25 -53.878)" fill="#e0e0e0"/>
        <path id="Path_12" data-name="Path 12" d="M290.958,99.882l6.412-25.967c.757-1.988,2.494-3.161,4.091-2.751l45.549,11.6c1.923.494,2.866,3.058,2.007,5.488l-5.771,24.057c-1.52,5.982-5.129,6.957-7.88,6.264L295.44,108.41C291.337,107.365,289.439,105.012,290.958,99.882Z" transform="translate(-117.736 -57.078)" fill="#ebebeb"/>
        <path id="Path_13" data-name="Path 13" d="M334.356,111.884a7.348,7.348,0,0,1-2.18-.333,7.444,7.444,0,1,1,9.3-4.937h0A7.463,7.463,0,0,1,334.356,111.884Zm0-14.26a6.809,6.809,0,1,0,6.508,8.8h0a6.809,6.809,0,0,0-6.5-8.79Z" transform="translate(-130.825 -66.374)" fill="#e0e0e0"/>
        <path id="Path_14" data-name="Path 14" d="M314.293,56.831l.943-3.071,2.186,2.353,2.186,2.353-3.129.718-3.129.718Z" transform="translate(-112.435 -19.291)" fill="#e0e0e0"/>
        <path id="Path_15" data-name="Path 15" d="M88.2,342.1,53.922,360.625a4.873,4.873,0,0,1-6.6-1.968L21.671,311.21a4.879,4.879,0,0,1,1.968-6.61l21.755-11.74,26.2,8.245,18.594,34.386A4.879,4.879,0,0,1,88.2,342.1Z" transform="translate(-21.083 -136.658)" fill="#ebebeb"/>
        <path id="Path_16" data-name="Path 16" d="M76.419,330.374a6.129,6.129,0,0,0,.744-.558,4.635,4.635,0,0,0,1.372-2.231,4.45,4.45,0,0,0-.205-2.917c-.154-.34-.353-.686-.551-1.052l-2.706-4.9-1.564-2.866-.827-1.526a7.872,7.872,0,0,0-.943-1.481,4.956,4.956,0,0,0-3.167-1.673,4.854,4.854,0,0,0-1.924.135,7.963,7.963,0,0,0-1.808.821L49.13,320.653a4.789,4.789,0,0,0-2.109,3.8,4.565,4.565,0,0,0,.417,2.148c.314.641.705,1.327,1.052,1.988l4.142,7.6c.327.59.641,1.237.981,1.763a4.629,4.629,0,0,0,1.372,1.282,4.546,4.546,0,0,0,3.514.494A7.649,7.649,0,0,0,60.1,339l1.507-.808,2.879-1.545,8.7-4.623,2.392-1.231.641-.314a1.024,1.024,0,0,1,.218-.09,1.053,1.053,0,0,1-.2.128l-.6.353c-.564.308-1.346.75-2.34,1.282l-8.637,4.738-2.885,1.6-1.526.834a7.837,7.837,0,0,1-1.673.763,4.866,4.866,0,0,1-5.283-1.924c-.391-.6-.641-1.186-1.007-1.8l-4.142-7.585c-.353-.641-.725-1.282-1.071-2.013a5,5,0,0,1-.455-2.327,5.206,5.206,0,0,1,2.289-4.123c5.6-3.084,10.9-5.905,15.76-8.528a8.111,8.111,0,0,1,1.924-.846,5.2,5.2,0,0,1,2.033-.135A5.3,5.3,0,0,1,72,312.613a8.059,8.059,0,0,1,.981,1.552c.276.519.551,1.026.821,1.526q.8,1.5,1.539,2.879c.981,1.834,1.866,3.494,2.642,4.956.2.366.385.712.551,1.077a4.68,4.68,0,0,1,.295,1.09,4.565,4.565,0,0,1-1.609,4.187,3.462,3.462,0,0,1-.8.494Z" transform="translate(-30.244 -143.081)" fill="#fafafa"/>
        <path id="Path_17" data-name="Path 17" d="M84.192,331.941a1.36,1.36,0,0,1-.391-.122l-1.077-.423c-.981-.417-2.315-.968-3.93-1.641l-2.7-1.154-1.507-.641-.789-.333a1.341,1.341,0,0,0-.763-.064,1.385,1.385,0,0,0-1.064,1.071c-.1.609-.205,1.231-.314,1.866-.218,1.282-.436,2.565-.641,3.95-.1.609-.205,1.205-.3,1.77l-.038.224-.218-.064-3.571-.975-.846-.244a2.1,2.1,0,0,0-.782-.135,1.462,1.462,0,0,0-1.205.744,3.046,3.046,0,0,0-.25.718l-.212.75c-.141.494-.276.968-.41,1.43-.256.923-.507,1.776-.731,2.565l-1.077,3.68c-.122.391-.224.718-.314.987a1.353,1.353,0,0,1-.128.34,1.237,1.237,0,0,1,.058-.359c.064-.276.141-.609.237-1.013.244-.93.564-2.18.962-3.712.205-.789.436-1.648.68-2.565q.192-.705.385-1.443c.071-.244.135-.5.205-.75a3.207,3.207,0,0,1,.276-.8,1.847,1.847,0,0,1,1.5-.949,2.45,2.45,0,0,1,.91.148l.853.237,3.558.987-.263.16c.1-.564.2-1.161.3-1.77l.641-3.943.327-1.885a1.757,1.757,0,0,1,1.379-1.359,1.718,1.718,0,0,1,.968.09l.789.346,1.5.641,2.731,1.186,3.847,1.763,1.045.494a2.23,2.23,0,0,1,.372.2Z" transform="translate(-35.381 -148.977)" fill="#fafafa"/>
        <path id="Path_18" data-name="Path 18" d="M66.37,328.669c0-.032.18-.147.455-.423a2.565,2.565,0,0,0,.7-1.443,2.392,2.392,0,0,0-.8-2.116,2.353,2.353,0,0,0-3.847,2.09,2.4,2.4,0,0,0,1.34,1.834,2.565,2.565,0,0,0,1.584.205,5.782,5.782,0,0,1,.6-.147,1.231,1.231,0,0,1-.564.3,2.5,2.5,0,0,1-1.744-.1,2.667,2.667,0,0,1-1.59-2.039,2.719,2.719,0,0,1,4.488-2.436,2.674,2.674,0,0,1,.84,2.449,2.565,2.565,0,0,1-.9,1.539A1.282,1.282,0,0,1,66.37,328.669Z" transform="translate(-35.935 -147.731)" fill="#fafafa"/>
        <path id="Path_19" data-name="Path 19" d="M0,0H48.729V15.241a4.078,4.078,0,0,1-4.078,4.078H4.078A4.078,4.078,0,0,1,0,15.241Z" transform="matrix(0.88, -0.475, 0.475, 0.88, 19.357, 209.292)" fill="#e0e0e0"/>
        <path id="Path_20" data-name="Path 20" d="M59,292.86l7.22,13.349a4.527,4.527,0,0,0,6.142,1.834l12.823-6.937Z" transform="translate(-34.689 -136.658)" fill="#ebebeb"/>
        <path id="Path_21" data-name="Path 21" d="M71.5,311.9a5.039,5.039,0,0,0,5.841,2.4c.16-.038.321-.083.474-.135,1.84-.6,13.933-4.61,13.8-4.86L89.69,305.72l-12.823,6.944S73.571,314.286,71.5,311.9Z" transform="translate(-39.174 -141.273)" fill="#e0e0e0"/>
        <path id="Path_22" data-name="Path 22" d="M82.372,371.316l1.411-.763,1.462,2.706a5.238,5.238,0,0,1-2.238,2.3,3.924,3.924,0,1,1-3.7-6.905,4.052,4.052,0,0,1,3.411-.359l-.494,1.449a2.565,2.565,0,0,0-2.129.18,2.424,2.424,0,0,0,2.283,4.277,2.706,2.706,0,0,0,1.039-.936Z" transform="translate(-41.153 -163.648)" fill="#fafafa"/>
        <path id="Path_23" data-name="Path 23" d="M87.07,365.243l1.539-.834,3.6,6.662-1.539.833Z" transform="translate(-44.761 -162.333)" fill="#fafafa"/>
        <path id="Path_24" data-name="Path 24" d="M94.11,361.959l.955,1.757,3.084-1.667.641,1.237-3.084,1.673,1.282,2.424-1.545.833-3.6-6.662,5.04-2.725.641,1.237Z" transform="translate(-46.473 -160.33)" fill="#fafafa"/>
        <path id="Path_25" data-name="Path 25" d="M368.168,392.764l-24.23-11.708a3.366,3.366,0,0,1-1.564-4.488l16.2-33.52a3.366,3.366,0,0,1,4.488-1.564l15.388,7.418,5.969,18-11.753,24.294A3.366,3.366,0,0,1,368.168,392.764Z" transform="translate(-136.252 -153.986)" fill="#ebebeb"/>
        <path id="Path_26" data-name="Path 26" d="M377.667,380.914a4.354,4.354,0,0,0,.609.192,3.206,3.206,0,0,0,1.8-.122,3.046,3.046,0,0,0,1.09-.712,3.252,3.252,0,0,0,.462-.583c.128-.224.244-.474.365-.737.487-1.032,1.052-2.206,1.667-3.494.308-.641.641-1.327.968-2.039l.519-1.077a5.238,5.238,0,0,0,.449-1.135,3.45,3.45,0,0,0-.34-2.443,3.34,3.34,0,0,0-.814-1.007,5.546,5.546,0,0,0-1.193-.68L372.1,361.73a3.334,3.334,0,0,0-2.981.353,3.205,3.205,0,0,0-1.032,1.1c-.237.442-.455.93-.686,1.391-.9,1.859-1.77,3.655-2.6,5.36-.2.43-.436.853-.6,1.282a3.205,3.205,0,0,0-.167,1.282,3.135,3.135,0,0,0,1.148,2.167,4.982,4.982,0,0,0,1.052.6l1.077.526,2.026.987,6.1,3,1.654.827.43.224.141.083a.482.482,0,0,1-.154-.058l-.442-.2-1.673-.776-6.149-2.924L367.216,376l-1.084-.519a5.13,5.13,0,0,1-1.1-.641,3.328,3.328,0,0,1-1.244-2.327,3.289,3.289,0,0,1,.173-1.4c.173-.455.4-.846.6-1.282.821-1.712,1.686-3.507,2.565-5.367.231-.468.436-.93.692-1.411a3.462,3.462,0,0,1,1.122-1.2,3.6,3.6,0,0,1,3.206-.385c3.988,1.891,7.694,3.725,11.143,5.379a5.858,5.858,0,0,1,1.237.718,3.693,3.693,0,0,1,1.282,3.706,5.616,5.616,0,0,1-.474,1.173l-.526,1.077c-.34.705-.673,1.379-.987,2.026l-1.693,3.5c-.128.256-.244.507-.385.744a3.037,3.037,0,0,1-.487.6,3.11,3.11,0,0,1-1.148.718,3.206,3.206,0,0,1-1.847.077,2.288,2.288,0,0,1-.6-.269Z" transform="translate(-144.052 -161.198)" fill="#fafafa"/>
        <path id="Path_27" data-name="Path 27" d="M381.153,385.919a1.243,1.243,0,0,1-.083-.269c-.058-.205-.122-.462-.2-.776-.167-.718-.391-1.686-.641-2.86-.141-.641-.289-1.282-.449-1.981-.083-.359-.167-.725-.25-1.1-.045-.186-.083-.378-.128-.571a.949.949,0,0,0-1.282-.641l-1.173.577-2.481,1.225-1.109.545-.141.07-.051-.147-.9-2.366-.205-.577a1.54,1.54,0,0,0-.237-.494,1.045,1.045,0,0,0-.91-.372,2.076,2.076,0,0,0-.5.148l-.507.186-.962.353-1.731.641-2.5.885-.673.224a1.052,1.052,0,0,1-.244.064,1.205,1.205,0,0,1,.224-.115l.641-.269,2.462-.968,1.718-.641.962-.365.507-.192a2.385,2.385,0,0,1,.558-.173,1.282,1.282,0,0,1,1.141.462,1.821,1.821,0,0,1,.282.571l.212.571c.289.769.583,1.571.885,2.392l-.192-.083,1.109-.545,2.481-1.218,1.186-.577a1.205,1.205,0,0,1,1.314.224,1.116,1.116,0,0,1,.34.577c.045.192.09.391.128.583.083.378.16.744.237,1.1.147.712.282,1.379.41,1.988.244,1.186.436,2.161.583,2.885l.141.782a.845.845,0,0,1,.032.25Z" transform="translate(-144.057 -166.472)" fill="#fafafa"/>
        <path id="Path_28" data-name="Path 28" d="M380.474,372.237s.154.038.417.077a1.718,1.718,0,0,0,1.09-.186,1.673,1.673,0,0,0,.866-1.282,1.629,1.629,0,1,0-3.206.167,1.744,1.744,0,0,0,.526.968c.2.186.34.256.327.282s-.16,0-.4-.2a1.712,1.712,0,0,1-.641-1.013,1.827,1.827,0,0,1,.5-1.712,1.872,1.872,0,0,1,3.206,1.539,1.847,1.847,0,0,1-1.032,1.455,1.744,1.744,0,0,1-1.2.115A.9.9,0,0,1,380.474,372.237Z" transform="translate(-149.661 -163.895)" fill="#fafafa"/>
        <path id="Path_29" data-name="Path 29" d="M0,0H33.629V9.265a4.078,4.078,0,0,1-4.078,4.078H4.078A4.078,4.078,0,0,1,0,9.265Z" transform="translate(210.449 213.599) rotate(25.79)" fill="#e0e0e0"/>
        <path id="Path_30" data-name="Path 30" d="M396.075,353.23l-4.559,9.47a3.135,3.135,0,0,0,1.455,4.18l9.073,4.379Z" transform="translate(-153.894 -158.321)" fill="#ebebeb"/>
        <path id="Path_31" data-name="Path 31" d="M391.073,369.33a3.488,3.488,0,0,0,1.013,4.245l.269.212c1.084.782,8.207,5.937,8.3,5.771l1.225-2.565-9.047-4.366S390.573,371.452,391.073,369.33Z" transform="translate(-153.727 -164.098)" fill="#e0e0e0"/>
        <path id="Path_32" data-name="Path 32" d="M362.385,398.682l1,.481-.923,1.923a3.649,3.649,0,0,1-2.2-.321,2.712,2.712,0,1,1,2.379-4.86,2.8,2.8,0,0,1,1.577,1.763l-1.013.308a1.757,1.757,0,0,0-.962-1.122,1.673,1.673,0,1,0-1.468,3.007,1.885,1.885,0,0,0,.943.211Z" transform="translate(-142.183 -173.503)" fill="#fafafa"/>
        <path id="Path_33" data-name="Path 33" d="M368.086,398.39l1.09.526-2.276,4.713-1.09-.532Z" transform="translate(-144.782 -174.526)" fill="#fafafa"/>
        <path id="Path_34" data-name="Path 34" d="M372.193,401.454l-.6,1.244,2.18,1.052-.423.872-2.18-1.052-.834,1.718-1.09-.526,2.276-4.713,3.558,1.718-.417.878Z" transform="translate(-146.016 -175.121)" fill="#fafafa"/>
        <rect id="Rectangle_12" data-name="Rectangle 12" width="55.153" height="44.093" transform="translate(9.291 50.224) rotate(-12.94)" fill="#fafafa"/>
        <path id="Path_35" data-name="Path 35" d="M89.222,108.3l-.263.071-.75.18-2.917.686-11,2.565-38.8,8.976.109-.173c2.943,12.823,6.316,27.455,9.887,42.958h0l-.192-.122,53.762-12.323-.1.16-7.091-31.18c-.846-3.757-1.513-6.707-1.968-8.72-.224-1.007-.4-1.776-.513-2.3s-.167-.8-.167-.8.064.256.186.769.308,1.282.539,2.27c.468,2.007,1.154,4.937,2.033,8.669l7.239,31.263v.128h-.128l-53.73,12.407-.16.038-.032-.16h0c-3.558-15.516-6.918-30.18-9.855-42.958l-.032-.141.141-.032,38.919-8.867,10.983-2.481,2.9-.641.737-.16Z" transform="translate(-26.177 -70.422)" fill="#e0e0e0"/>
        <rect id="Rectangle_13" data-name="Rectangle 13" width="51.281" height="38.541" transform="translate(11.764 52.505) rotate(-12.94)" fill="#ebebeb"/>
        <path id="Path_36" data-name="Path 36" d="M31.8,125.159,43.892,97.8l14.17,12.125,5.54-9.5,18.177,13.247Z" transform="translate(-11.406 -35.094)" fill="#e0e0e0"/>
        <path id="Path_37" data-name="Path 37" d="M90.286,135.3a4.039,4.039,0,1,1-4.841-3.033A4.039,4.039,0,0,1,90.286,135.3Z" transform="translate(-43.053 -78.997)" fill="#e0e0e0"/>
        <rect id="Rectangle_14" data-name="Rectangle 14" width="83.339" height="66.63" transform="matrix(0.999, -0.042, 0.042, 0.999, 36.76, 3.463)" fill="#fafafa"/>
        <path id="Path_38" data-name="Path 38" d="M161.564,49.24h-.4l-1.167.058-4.52.218-17.049.763L78.308,52.933l.205-.224c.834,19.812,1.782,42.529,2.8,66.566h0l-.25-.231,83.269-3.424-.192.205c-.789-20.043-1.449-36.662-1.924-48.286-.218-5.809-.391-10.368-.513-13.465-.051-1.552-.1-2.744-.122-3.565s-.032-1.237-.032-1.237.032.4.071,1.193.1,1.988.173,3.52c.141,3.116.346,7.656.641,13.465.513,11.65,1.237,28.308,2.116,48.408v.2h-.205l-83.262,3.462h-.244v-.237h0c-.994-24.037-1.924-46.754-2.744-66.566V52.5h.218l60.27-2.4,17-.641,4.488-.16h1.148Z" transform="translate(-41.539 -49.24)" fill="#e0e0e0"/>
        <rect id="Rectangle_15" data-name="Rectangle 15" width="77.485" height="58.237" transform="matrix(0.999, -0.042, 0.042, 0.999, 39.805, 7.54)" fill="#ebebeb"/>
        <path id="Path_39" data-name="Path 39" d="M65.85,81.637l25.531-37.3,17.69,21.934L119.933,53.7l23.332,24.711Z" transform="translate(-23.625 -15.911)" fill="#e0e0e0"/>
        <path id="Path_40" data-name="Path 40" d="M156.868,81.854a6.1,6.1,0,1,1-1.961-4.24A6.1,6.1,0,0,1,156.868,81.854Z" transform="translate(-65.433 -58.843)" fill="#e0e0e0"/>
        <path id="Path_41" data-name="Path 41" d="M169.656,190.658l-13.073-36.912c-.878-1.436-1.193-4.046-.308-5.418a3.52,3.52,0,0,1,1.847-1.468l20.9-6.97a3.462,3.462,0,0,1,3.674.9l4.078,4.238,27.365-9.1a5.226,5.226,0,0,1,7.373,3.315l10.227,31.667a7.69,7.69,0,0,1-4.636,8.816l-48.331,16.119C175.452,196.935,171.676,194.948,169.656,190.658Z" transform="translate(-69.405 -80.166)" fill="url(#linear-gradient)"/>
        <g id="Group_136" data-name="Group 136" transform="translate(86.343 55.259)" opacity="0.3">
          <path id="Path_42" data-name="Path 42" d="M169.656,190.658l-13.073-36.912c-.878-1.436-1.193-4.046-.308-5.418a3.52,3.52,0,0,1,1.847-1.468l20.9-6.97a3.462,3.462,0,0,1,3.674.9l4.078,4.238,27.365-9.1a5.226,5.226,0,0,1,7.373,3.315l10.227,31.667a7.69,7.69,0,0,1-4.636,8.816l-48.331,16.119C175.452,196.935,171.676,194.948,169.656,190.658Z" transform="translate(-155.747 -135.424)" fill="url(#linear-gradient)"/>
        </g>
        <path id="Path_43" data-name="Path 43" d="M170.266,190.168l-10.637-31.084c-.545-2.565.481-4.924,2.4-5.565l54.814-18.28c2.321-.769,4.995,1.282,5.719,4.341l10.021,28.692c2.4,7.194-.712,10.618-3.988,11.714l-48.03,16.029C175.626,197.651,172.086,196.439,170.266,190.168Z" transform="translate(-70.745 -80.041)" fill="#d3d3d3"/>
        <path id="Path_44" data-name="Path 44" d="M224.875,183.14a5.244,5.244,0,0,0,.7-.353,3.8,3.8,0,0,0,1.725-4.1c-.083-.3-.192-.641-.308-.955l-1.526-4.488-.885-2.616c-.154-.449-.308-.917-.468-1.391a6.6,6.6,0,0,0-.571-1.372,4.238,4.238,0,0,0-4-2.033,6.79,6.79,0,0,0-1.629.423l-14.324,4.809a4.078,4.078,0,0,0-2.315,2.853,3.911,3.911,0,0,0,.038,1.847c.167.6.391,1.212.583,1.808q1.205,3.61,2.3,6.931c.192.539.346,1.116.558,1.609a3.809,3.809,0,0,0,3.809,2.2,6.354,6.354,0,0,0,1.443-.365l1.4-.462,2.622-.859,7.918-2.565,2.161-.686.564-.173.192-.045-.186.083-.551.2-2.135.75-7.886,2.687-2.616.885-1.391.468a6.52,6.52,0,0,1-1.5.391,4.1,4.1,0,0,1-4.123-2.359c-.244-.551-.385-1.084-.583-1.641l-2.3-6.912c-.2-.641-.417-1.186-.6-1.834a4.219,4.219,0,0,1-.038-2,4.386,4.386,0,0,1,2.507-3.1c5.129-1.75,9.945-3.328,14.369-4.8a7.182,7.182,0,0,1,1.7-.43,4.488,4.488,0,0,1,4.257,2.186,6.656,6.656,0,0,1,.59,1.436c.16.474.314.936.462,1.391.3.91.59,1.789.859,2.622.551,1.667,1.045,3.206,1.481,4.488.109.333.218.641.295.975a4.059,4.059,0,0,1,.09.949,3.847,3.847,0,0,1-1.924,3.251A2.93,2.93,0,0,1,224.875,183.14Z" transform="translate(-85.589 -90.966)" fill="#fafafa"/>
        <path id="Path_45" data-name="Path 45" d="M230.734,184.864a1.4,1.4,0,0,1-.308-.16l-.8-.481-3.033-1.924-2.1-1.391-1.161-.757-.6-.391a1.154,1.154,0,0,0-.641-.16,1.167,1.167,0,0,0-1.045.731l-.532,1.513-1.128,3.206c-.18.494-.346.975-.513,1.43l-.064.186-.173-.083-2.808-1.359-.641-.321a1.8,1.8,0,0,0-.641-.231,1.282,1.282,0,0,0-1.116.449,2.309,2.309,0,0,0-.314.558l-.282.59-.551,1.135-.981,2.026-1.436,2.9-.4.782a1.822,1.822,0,0,1-.16.263.98.98,0,0,1,.1-.295c.09-.218.205-.481.346-.8.333-.744.789-1.738,1.34-2.949.289-.641.6-1.314.943-2.045.173-.372.346-.75.532-1.141.09-.2.186-.4.276-.6a3.053,3.053,0,0,1,.346-.641,1.564,1.564,0,0,1,1.391-.571,2.007,2.007,0,0,1,.737.256l.641.314,2.821,1.346-.244.1c.167-.455.333-.936.507-1.43l1.141-3.206.545-1.52a1.475,1.475,0,0,1,1.346-.93,1.443,1.443,0,0,1,.8.218l.641.4,1.148.776,2.058,1.385,2.975,2.033.8.571a1.393,1.393,0,0,1,.25.224Z" transform="translate(-88.621 -95.895)" fill="#fafafa"/>
        <path id="Path_46" data-name="Path 46" d="M217.658,178.754a4.572,4.572,0,0,0,.436-.282,2.141,2.141,0,0,0,.8-1.1,2.045,2.045,0,0,0-.353-1.885,2.02,2.02,0,0,0-2.18-.641A1.994,1.994,0,0,0,215,176.664a2.02,2.02,0,0,0,.846,1.718,2.142,2.142,0,0,0,1.282.4,4.983,4.983,0,0,1,.526-.038,1.183,1.183,0,0,1-.513.173,2.135,2.135,0,0,1-1.443-.333,2.27,2.27,0,0,1-1.026-1.924,2.3,2.3,0,0,1,4.11-1.372,2.27,2.27,0,0,1,.34,2.161,2.141,2.141,0,0,1-.955,1.128C217.857,178.754,217.664,178.773,217.658,178.754Z" transform="translate(-90.548 -94.152)" fill="#fafafa"/>
        <path id="Path_47" data-name="Path 47" d="M87.816,363.987l-24-101.363a11.321,11.321,0,0,1,3.661-11.451,9.271,9.271,0,0,1,5.771-2.084L139.674,247a8.976,8.976,0,0,1,8.335,5.219l6.617,13.734,84.295.083c6.194,0,12.7,8.592,11.958,15.8l7.213,84.416c-1.045,10.182-10.034,17.844-18.773,17.844H106.135C97,384.126,89.278,376.156,87.816,363.987Z" transform="translate(-36.301 -120.201)" fill="url(#linear-gradient)"/>
        <g id="Group_137" data-name="Group 137" transform="translate(27.191 126.796)" opacity="0.3">
          <path id="Path_48" data-name="Path 48" d="M87.816,363.987l-24-101.363a11.321,11.321,0,0,1,3.661-11.451,9.271,9.271,0,0,1,5.771-2.084L139.674,247a8.976,8.976,0,0,1,8.335,5.219l6.617,13.734,84.295.083c6.194,0,12.7,8.592,11.958,15.8l7.213,84.416c-1.045,10.182-10.034,17.844-18.773,17.844H106.135C97,384.126,89.278,376.156,87.816,363.987Z" transform="translate(-63.491 -246.997)" fill="#44b4bf"/>
        </g>
        <path id="Path_49" data-name="Path 49" d="M78.578,320.643,72.23,208.349l157.215-2.379,5.508,112.545Z" transform="translate(-25.914 -73.908)" fill="#e0e0e0"/>
        <path id="Path_50" data-name="Path 50" d="M100.925,265.465a1.052,1.052,0,1,1-1.052-1.135,1.09,1.09,0,0,1,1.052,1.135Z" transform="translate(-48.979 -126.421)" fill="#ebebeb"/>
        <path id="Path_51" data-name="Path 51" d="M107.285,265.465a1.052,1.052,0,1,1-1.052-1.135,1.09,1.09,0,0,1,1.052,1.135Z" transform="translate(-51.261 -126.421)" fill="#ebebeb"/>
        <path id="Path_52" data-name="Path 52" d="M113.655,265.465a1.052,1.052,0,1,1-1.052-1.135,1.1,1.1,0,0,1,1.052,1.135Z" transform="translate(-53.547 -126.421)" fill="#ebebeb"/>
        <path id="Path_53" data-name="Path 53" d="M127.143,216.86l9.483,56.359L62.013,284.426,52.53,228.068Z" transform="translate(-18.845 -77.816)" fill="#ebebeb"/>
        <path id="Path_54" data-name="Path 54" d="M148.132,266.1l-.359.064-1.045.167-4.052.641-15.266,2.34-53.858,8.181.16-.212c2.834,16.773,6.072,36,9.509,56.352h0l-.25-.173,74.619-11.176-.154.2c-2.815-16.978-5.129-31.045-6.784-40.887-.808-4.924-1.443-8.784-1.879-11.432-.212-1.314-.372-2.321-.487-3.013s-.154-1.052-.154-1.052.071.333.192,1.007.295,1.68.519,2.975c.455,2.635,1.116,6.482,1.962,11.381,1.686,9.861,4.091,23.961,6.989,40.971l.032.167h-.18L83.027,333.872l-.212.032-.038-.205h0c-3.417-20.351-6.643-39.579-9.457-56.359v-.18h.192l54.019-8.015,15.241-2.244,4.02-.577,1.026-.147Z" transform="translate(-39.827 -127.056)" fill="#263238"/>
        <path id="Path_55" data-name="Path 55" d="M65.76,282.7l69.375-10.419-8.29-49.261L57.47,233.439Z" transform="translate(-20.618 -80.026)" fill="#455a64"/>
        <g id="Group_138" data-name="Group 138" transform="translate(45.143 168.416)" opacity="0.3">
          <path id="Path_56" data-name="Path 56" d="M70.4,296.928,89.475,262.67l18.235,16.9,8.457-11.772,23.608,18.709Z" transform="translate(-70.4 -262.67)"/>
        </g>
        <g id="Group_139" data-name="Group 139" transform="translate(73.993 157.03)" opacity="0.3">
          <path id="Path_57" data-name="Path 57" d="M147.466,298.575a5.277,5.277,0,0,1-4.6,5.982,5.508,5.508,0,0,1-6.328-4.341,5.27,5.27,0,0,1,4.591-5.982,5.5,5.5,0,0,1,6.335,4.341Z" transform="translate(-136.487 -294.152)"/>
        </g>
        <path id="Path_58" data-name="Path 58" d="M88.012,331.788,85.89,222.52l160.793-.34-.66,107.979Z" transform="translate(-30.816 -79.725)" fill="#ebebeb"/>
        <path id="Path_59" data-name="Path 59" d="M120.345,277.995a1.052,1.052,0,1,1-1.051-1.135A1.1,1.1,0,0,1,120.345,277.995Z" transform="translate(-55.948 -130.917)" fill="#e0e0e0"/>
        <path id="Path_60" data-name="Path 60" d="M126.215,277.995a1.052,1.052,0,1,1-1.045-1.135,1.09,1.09,0,0,1,1.045,1.135Z" transform="translate(-58.054 -130.917)" fill="#e0e0e0"/>
        <path id="Path_61" data-name="Path 61" d="M114.1,277.995a1.052,1.052,0,1,1-1.052-1.135A1.1,1.1,0,0,1,114.1,277.995Z" transform="translate(-53.709 -130.917)" fill="#e0e0e0"/>
        <path id="Path_62" data-name="Path 62" d="M95.03,338.952V235.063l160.132-.333-8.6,106.46Z" transform="translate(-34.095 -84.228)" fill="#fafafa"/>
        <path id="Path_63" data-name="Path 63" d="M103.625,378.953l9.579-78.062c.744-6.1,5.091-10.631,10.214-10.631h146.27c6.187,0,10.99,6.521,10.259,13.926l-7.694,77.126c-2.244,16.029-8.406,18.337-17.145,18.337H118.424C109.28,399.65,100.419,397.355,103.625,378.953Z" transform="translate(-50.462 -135.725)" fill="#44b4bf"/>
        <path id="Path_64" data-name="Path 64" d="M44.82,460.777c0-.09,60.122-.167,134.261-.167s134.28.077,134.28.167-60.11.167-134.28.167S44.82,460.86,44.82,460.777Z" transform="translate(-29.601 -196.852)" fill="#263238"/>
        <path id="Path_65" data-name="Path 65" d="M412.43,425.58c.083.641,1.59,17.709,1.59,17.709h7.829l1.372-17.639Z" transform="translate(-161.51 -184.282)" fill="#eb996e"/>
        <path id="Path_66" data-name="Path 66" d="M407.534,451.37v.609s-10.541,3.892-10.714,5.867l20.71.487-.122-6.893A11.842,11.842,0,0,1,407.534,451.37Z" transform="translate(-155.909 -193.536)" fill="#ff725e"/>
        <g id="Group_140" data-name="Group 140" transform="translate(258.31 260.032)" opacity="0.6">
          <path id="Path_67" data-name="Path 67" d="M424.972,454.819a.853.853,0,0,1,.564.981.808.808,0,0,1-.968.564.891.891,0,0,1-.59-1.039.84.84,0,0,1,1.071-.474" transform="translate(-423.957 -454.798)" fill="#fff"/>
        </g>
        <g id="Group_141" data-name="Group 141" transform="translate(240.879 263.136)" opacity="0.6">
          <path id="Path_68" data-name="Path 68" d="M417.486,461.3l-.032-1.661-19.831.141s-.936.378-.846,1.032Z" transform="translate(-396.771 -459.64)" fill="#fff"/>
        </g>
        <path id="Path_69" data-name="Path 69" d="M413.38,452.367c0,.1.507.16.994.5s.744.763.84.725-.045-.641-.641-1.019S413.361,452.278,413.38,452.367Z" transform="translate(-161.851 -193.867)" fill="#263238"/>
        <path id="Path_70" data-name="Path 70" d="M410,453.709c0,.1.41.282.744.718s.417.891.519.885.18-.571-.244-1.1S410,453.613,410,453.709Z" transform="translate(-160.638 -194.362)" fill="#263238"/>
        <path id="Path_71" data-name="Path 71" d="M407.51,456.755c.09,0,.244-.474,0-1.039s-.718-.789-.763-.705.244.385.436.846S407.408,456.742,407.51,456.755Z" transform="translate(-159.47 -194.837)" fill="#263238"/>
        <path id="Path_72" data-name="Path 72" d="M423.18,430.67c.077.641,1.584,17.709,1.584,17.709H432.6l1.372-17.632Z" transform="translate(-165.368 -186.109)" fill="#ffbe9d"/>
        <path id="Path_73" data-name="Path 73" d="M431.158,454.32s-5.5,3.9-8.162.526l-.7,1.635-3.123,11.663a1.558,1.558,0,0,0,.878,1.872,1.5,1.5,0,0,0,1.6-.3c2.263-2.154,10.547-10.111,10.464-11.188l-.032-2.866A1.455,1.455,0,0,0,431.158,454.32Z" transform="translate(-163.907 -194.595)" fill="#ff725e"/>
        <g id="Group_142" data-name="Group 142" transform="translate(256.415 262.931)" opacity="0.6">
          <path id="Path_74" data-name="Path 74" d="M421,471.893l11.8-12.573v.641a1.725,1.725,0,0,1-.558,1.379c-.955,1.282-3.6,4.168-9.861,10.182a1.52,1.52,0,0,1-1.372.385Z" transform="translate(-421 -459.32)" fill="#fff"/>
        </g>
        <g id="Group_143" data-name="Group 143" transform="translate(266.103 260.907)" opacity="0.6">
          <path id="Path_75" data-name="Path 75" d="M436.489,456.328a.91.91,0,0,0-.256,1.193.885.885,0,0,0,1.186.263.962.962,0,0,0,.263-1.282.923.923,0,0,0-1.282-.141" transform="translate(-436.111 -456.164)" fill="#fff"/>
        </g>
        <path id="Path_76" data-name="Path 76" d="M424.631,467.938a3.245,3.245,0,0,0-2.981-1.487c0-.039.173-.154.519-.2a2.353,2.353,0,0,1,1.327.237,2.417,2.417,0,0,1,.987.91C424.651,467.707,424.67,467.925,424.631,467.938Z" transform="translate(-164.819 -198.871)" fill="#263238"/>
        <path id="Path_77" data-name="Path 77" d="M423.129,471.394a13.182,13.182,0,0,0-1.282-.641,11.533,11.533,0,0,0-1.436-.186,1.654,1.654,0,0,1,1.532-.122C422.789,470.676,423.206,471.33,423.129,471.394Z" transform="translate(-164.374 -200.334)" fill="#263238"/>
        <path id="Path_78" data-name="Path 78" d="M427.07,464.017a14.718,14.718,0,0,0-1.923-1.128,16.569,16.569,0,0,0-2.186-.519,3.392,3.392,0,0,1,2.308.218A3.347,3.347,0,0,1,427.07,464.017Z" transform="translate(-165.289 -197.444)" fill="#263238"/>
        <path id="Path_79" data-name="Path 79" d="M427.627,459.06c-.038.09-.853-.256-1.924-.3s-1.923.212-1.923.122A3.744,3.744,0,0,1,427.627,459.06Z" transform="translate(-165.583 -196.071)" fill="#263238"/>
        <path id="Path_80" data-name="Path 80" d="M424.745,457.381a1.282,1.282,0,0,1,.1-.571,3.807,3.807,0,0,1,.705-1.353,1.7,1.7,0,0,1,.878-.673.641.641,0,0,1,.641.257.994.994,0,0,1,.109.7,2.154,2.154,0,0,1-2.206,1.6,2.488,2.488,0,0,1-2.161-1.725.859.859,0,0,1,.1-.712.59.59,0,0,1,.641-.192,2.064,2.064,0,0,1,.866.673,4.231,4.231,0,0,1,.776,1.314,1.449,1.449,0,0,1,.135.539,7.117,7.117,0,0,0-1.084-1.7,1.923,1.923,0,0,0-.763-.571.321.321,0,0,0-.365.1.641.641,0,0,0-.038.474A2.225,2.225,0,0,0,425,457.016a1.853,1.853,0,0,0,1.892-1.327.738.738,0,0,0-.058-.494.327.327,0,0,0-.353-.147,1.539,1.539,0,0,0-.75.558,5.771,5.771,0,0,0-.981,1.776Z" transform="translate(-165.221 -194.726)" fill="#263238"/>
        <path id="Path_81" data-name="Path 81" d="M433.528,282.29l-38.47,7.816-.109,7.444a25.763,25.763,0,0,0,.205,3.655l4.616,36.406,6.719,50.556,6.463-.359.07,1.988,10.81-.616s6.713-31.071,6.174-37.983c-1.1-14.163,1.225-21.274,2.981-28.526C434.893,314.836,441.863,296.261,433.528,282.29Z" transform="translate(-155.236 -132.865)" fill="#263238"/>
        <path id="Path_82" data-name="Path 82" d="M416.767,307.43a.874.874,0,0,0,0,.192v.564c0,.519.045,1.25.077,2.186.077,1.924.192,4.642.333,8.021.314,6.79.744,16.138,1.212,26.467s.962,19.684,1.282,26.474c.179,3.373.327,6.11.423,8.021l.135,2.18a2.346,2.346,0,0,0,.038.564.9.9,0,0,0,0,.192,1.435,1.435,0,0,0,0-.192c0-.141,0-.327,0-.564,0-.519-.045-1.25-.077-2.186-.077-1.924-.192-4.648-.333-8.021-.314-6.79-.737-16.138-1.212-26.474s-.962-19.678-1.282-26.461c-.18-3.379-.321-6.117-.423-8.027-.058-.93-.1-1.661-.128-2.18a5.157,5.157,0,0,0-.045-.564,1.466,1.466,0,0,0,0-.192Z" transform="translate(-163.065 -141.886)" fill="#455a64"/>
        <path id="Path_83" data-name="Path 83" d="M422.254,423.38a3.366,3.366,0,0,0-.045.673v1.827c0,1.545,0,3.674.09,6.027s.167,4.488.269,6.027c.051.769.1,1.391.141,1.821a3.062,3.062,0,0,0,.09.641,2.617,2.617,0,0,0,0-.641c0-.487,0-1.1-.051-1.827-.045-1.6-.109-3.7-.179-6.021s-.128-4.418-.18-6.027c-.032-.725-.058-1.334-.077-1.821A3.025,3.025,0,0,0,422.254,423.38Z" transform="translate(-165.019 -183.493)" fill="#455a64"/>
        <path id="Path_84" data-name="Path 84" d="M352.558,192.416s18.113-1.622,19.761-1.962a47.23,47.23,0,0,1,6.719-.128l-5.924,16.555-24.486-2.834c-4.232-1.385-7.694-9.291-7.694-9.291L332.9,179.49l8.534-.75Z" transform="translate(-132.973 -95.709)" fill="#ffbe9d"/>
        <path id="Path_85" data-name="Path 85" d="M419.367,197.509c.314.109,9.72,3.507,12.458,5.3,1.923,1.282,2.116,4.488,1.173,6.617l-4.681,10.528L425.7,232.978l8.47,20.376.853,3.36-40.932,2.892-1.8-4.245,2.135-19.235V211.89l5.924-15.08,10.137.128Z" transform="translate(-154.283 -102.193)" fill="#0a737e"/>
        <g id="Group_144" data-name="Group 144" transform="translate(242.514 136.853)" opacity="0.3">
          <path id="Path_86" data-name="Path 86" d="M399.615,268.657a3.161,3.161,0,0,1,1.629-.84,164.1,164.1,0,0,1,22.537-4.879,11.585,11.585,0,0,1,5.309.109c1.693.571,3.623,2.193,3.462,3.969l.244.6a18.363,18.363,0,0,1-10.381,2.475c-2.161-.1-4.527-.526-6.341.641-1.225.8-1.923,2.186-2.981,3.206a6.5,6.5,0,0,1-5.27,1.75,6.694,6.694,0,0,1-4.706-2.962c-.577-.891-1.084-2.026-2.122-2.225-.436-.083-.93,0-1.282-.224a1.128,1.128,0,0,1-.1-1.616Z" transform="translate(-399.319 -262.683)"/>
        </g>
        <path id="Path_87" data-name="Path 87" d="M449.753,205.78a8,8,0,0,1,3.116,2.943c1.532,2.283,6.63,17.312,6.63,17.312l-13,5.392-3.206-6.905Z" transform="translate(-172.584 -105.411)" fill="url(#linear-gradient)"/>
        <path id="Path_88" data-name="Path 88" d="M447.69,223a1.8,1.8,0,0,0-.147.5c-.07.327-.167.8-.269,1.391-.205,1.173-.442,2.808-.641,4.623a45.087,45.087,0,0,0-.244,4.668v1.411a1.8,1.8,0,0,0,.051.519,15.987,15.987,0,0,0,.141-1.924c.064-1.193.167-2.834.333-4.642s.372-3.443.526-4.629a16.66,16.66,0,0,0,.25-1.917Z" transform="translate(-173.695 -111.59)" fill="#263238"/>
        <path id="Path_89" data-name="Path 89" d="M415.449,236.41a1.794,1.794,0,0,0,0,.532,8.668,8.668,0,0,0,.263,1.43,9.7,9.7,0,0,0,6.38,6.694,8.47,8.47,0,0,0,1.411.333,1.969,1.969,0,0,0,.532,0c0-.051-.744-.141-1.879-.558a10.162,10.162,0,0,1-6.251-6.559C415.551,237.16,415.5,236.4,415.449,236.41Z" transform="translate(-162.586 -116.402)" fill="#263238"/>
        <path id="Path_90" data-name="Path 90" d="M390.583,196.736c-2.3,0-11.432,1.148-11.432,1.148l-.981,14.811,11.188,1.359,7.694-17.312S392.885,196.717,390.583,196.736Z" transform="translate(-149.217 -102.163)" fill="#ff725e"/>
        <path id="Path_91" data-name="Path 91" d="M389.09,152.163a.674.674,0,0,0,.468-1.148.641.641,0,0,1,.833-.327,1.148,1.148,0,0,1,.834-1.757,1.18,1.18,0,0,1,1.128-1.821.808.808,0,0,1,.9-1.327.968.968,0,0,1,1.282-1.186,1.052,1.052,0,0,1,1.334-1.193.728.728,0,0,1,1.334-.564.923.923,0,0,1,1.622-.84.885.885,0,0,1,.468-1.007.872.872,0,0,1,1.064.314,1.327,1.327,0,0,1,.814-1.282,1.282,1.282,0,0,1,1.455.4.942.942,0,0,1,.955-.878,2.7,2.7,0,0,1,1.353.449.949.949,0,0,1,1.045-.5,2.847,2.847,0,0,1,1.116.551,1.4,1.4,0,0,1,.34-.641l.75.321a1.244,1.244,0,0,1,1.013-2.244c-.449-.583.071-1.391.564-1.924l.436-.474a1.545,1.545,0,0,1,.442-.378.808.808,0,0,1,1.026.34.83.83,0,0,1,1.564-.507,1.346,1.346,0,0,1,2.218,0c0-.4.6-.5.949-.308s.641.539,1.058.551a4.041,4.041,0,0,0,.718-.135,1.148,1.148,0,0,1,1.282.975,1.763,1.763,0,0,1,2.1.75,4.8,4.8,0,0,1,2.751,1.019c.4.25.84.782.5,1.116a1.372,1.372,0,0,1,1.552,1.4,1.161,1.161,0,0,1,1.282,1.558.776.776,0,0,1,.827,1.122.885.885,0,0,1,.987,1.167c.468-.135.834.526.641.968a1.956,1.956,0,0,1-1.135.853,1.4,1.4,0,0,1,1.02.192c.276.224.308.744,0,.891a1.379,1.379,0,0,1,1.353,1.59.776.776,0,0,1,.6,1.282,1.1,1.1,0,0,1,.077,1.872,2.007,2.007,0,0,1,.423,2.866.814.814,0,0,1-.173,1.443,1.545,1.545,0,0,1-1.1,2.257.9.9,0,0,1,.494,1.7v.1c-.032.192-.154.365-.2.551v.045a1.282,1.282,0,0,1,.077.468v.1a3.116,3.116,0,0,1,.147.583c.077.91-.923,1.584-1.577,2.315a4.02,4.02,0,0,0-.808,1.378c-.186.59-.487,1.4-1.161,1.282a.962.962,0,0,1-.725,1.507c.353.1.3.59,0,.814a5.719,5.719,0,0,1-1.007.449,10.136,10.136,0,0,0-.962.718,1.039,1.039,0,0,1-1.141.1l-.058.115h0c.2.147.128.487-.071.641a1.186,1.186,0,0,1-.718.154h-.834a7.143,7.143,0,0,1-3.437.436,1.545,1.545,0,0,1-1.808.25,2.622,2.622,0,0,1-2.308.218,2.033,2.033,0,0,1-1.282-1.661l-.987-.167-3.623,1.193a3.514,3.514,0,0,1-2.315.212,1.654,1.654,0,0,1-1.924.122,2.411,2.411,0,0,1-2.565.147,1.59,1.59,0,0,1-1.488.705,6.79,6.79,0,0,0-.8-.115c-.519,0-1.109.372-1.513.09-.237-.167-.256-.487-.455-.7a2.18,2.18,0,0,0-.994-.378,3.374,3.374,0,0,1-.859-2.1c-.84.045-1.443-1.4-1.815-2.629a1.558,1.558,0,0,1-.526-1.968,2.847,2.847,0,0,1-1.667-2.411.8.8,0,0,1-.692-.641,4,4,0,0,0-.256-1.007c-.167-.276-.468-.468-.571-.776a1.333,1.333,0,0,1,0-.641c.154-.8.3-1.6.455-2.392a.808.808,0,0,1-.436-1.282l-.846-.539a.757.757,0,0,1,.41-.513l-.75-.423a.865.865,0,0,0,.25-.853l1.455-.385-1.532.4A1.237,1.237,0,0,1,389.09,152.163Z" transform="translate(-153.135 -79.64)" fill="#263238"/>
        <path id="Path_92" data-name="Path 92" d="M424.611,154.562l-10-2.167c-3.693-.487-7.8,3.122-8.124,6.835a66.9,66.9,0,0,0-.237,12.272c.827,6.226,5.559,7.136,5.559,7.136l-.07,2.565a6.739,6.739,0,0,0,6.412,6.925h0a6.732,6.732,0,0,0,7.053-6.412l1.282-24.73A2.366,2.366,0,0,0,424.611,154.562Z" transform="translate(-159.22 -86.239)" fill="#ffbe9d"/>
        <path id="Path_93" data-name="Path 93" d="M408.14,169.346a.8.8,0,0,0,.744.8.763.763,0,0,0,.84-.7.8.8,0,0,0-.75-.821.757.757,0,0,0-.833.718Z" transform="translate(-159.971 -92.079)" fill="#263238"/>
        <path id="Path_94" data-name="Path 94" d="M407.993,167.168c.071.135.763-.244,1.6-.077s1.359.744,1.475.641,0-.269-.224-.539a2.052,2.052,0,0,0-1.16-.641,1.962,1.962,0,0,0-1.282.205C408.063,166.924,407.935,167.11,407.993,167.168Z" transform="translate(-159.913 -91.324)" fill="#263238"/>
        <path id="Path_95" data-name="Path 95" d="M421.2,170.187a.8.8,0,0,0,.744.821.763.763,0,0,0,.84-.692.808.808,0,0,0-.75-.827.763.763,0,0,0-.834.7Z" transform="translate(-164.657 -92.387)" fill="#263238"/>
        <path id="Path_96" data-name="Path 96" d="M420.884,167.99c.109.128.808-.372,1.782-.34s1.673.551,1.782.43-.058-.269-.359-.507a2.4,2.4,0,0,0-1.423-.494,2.379,2.379,0,0,0-1.423.417C420.954,167.72,420.832,167.938,420.884,167.99Z" transform="translate(-164.54 -91.524)" fill="#263238"/>
        <path id="Path_97" data-name="Path 97" d="M415.186,173.6a5.769,5.769,0,0,0-1.385-.282c-.218,0-.423-.077-.455-.231a1.141,1.141,0,0,1,.16-.641c.224-.526.449-1.071.692-1.648a28.416,28.416,0,0,0,1.558-4.315,28.269,28.269,0,0,0-1.924,4.18l-.641,1.654a1.282,1.282,0,0,0-.135.859.558.558,0,0,0,.353.327,1.379,1.379,0,0,0,.366.058A5.36,5.36,0,0,0,415.186,173.6Z" transform="translate(-161.727 -91.309)" fill="#263238"/>
        <path id="Path_98" data-name="Path 98" d="M415.009,192.227a15.779,15.779,0,0,0,8.335-2.007s-2.257,4.238-8.444,3.5Z" transform="translate(-162.397 -99.828)" fill="#eb996e"/>
        <path id="Path_99" data-name="Path 99" d="M420.336,165.034c.109.224.949,0,1.962.051s1.84.218,1.956,0c.051-.109-.115-.314-.462-.507a3.411,3.411,0,0,0-2.981-.032C420.458,164.72,420.291,164.932,420.336,165.034Z" transform="translate(-164.345 -90.498)" fill="#263238"/>
        <path id="Path_100" data-name="Path 100" d="M408.047,163.622c.141.212.808.109,1.584.212s1.411.333,1.59.16c.077-.09,0-.3-.256-.526a2.43,2.43,0,0,0-1.237-.5,2.3,2.3,0,0,0-1.314.205C408.111,163.352,408.015,163.538,408.047,163.622Z" transform="translate(-159.935 -90.041)" fill="#263238"/>
        <path id="Path_101" data-name="Path 101" d="M436.458,172.816c.09-.038,3.706-1.09,3.584,2.6s-3.8,2.8-3.8,2.693S436.458,172.816,436.458,172.816Z" transform="translate(-170.054 -93.523)" fill="#ffbe9d"/>
        <path id="Path_102" data-name="Path 102" d="M438.068,177.367a.754.754,0,0,0,.167.1.641.641,0,0,0,.481,0,1.59,1.59,0,0,0,.782-1.4,2.186,2.186,0,0,0-.148-.93.744.744,0,0,0-.468-.507.333.333,0,0,0-.385.167c-.051.1-.032.173-.051.18s-.077-.064-.045-.218a.43.43,0,0,1,.154-.224.481.481,0,0,1,.359-.083.917.917,0,0,1,.641.6,2.167,2.167,0,0,1,.186,1.032,1.661,1.661,0,0,1-.987,1.558.641.641,0,0,1-.583-.115C438.068,177.483,438.055,177.4,438.068,177.367Z" transform="translate(-170.708 -94.169)" fill="#eb996e"/>
        <path id="Path_103" data-name="Path 103" d="M432.934,172.415c-1.8.59-1.18-8.072-2.712-9.188s-2,3.174-4.059,1.622c-1.34-1.007-.41-1.629-1.167-3.123-1-1.968-3.969-2.257-4.982-4.219-.59-1.148-.359-2.565-1-3.7a4.263,4.263,0,0,0-3.026-1.815,11.534,11.534,0,0,1-3.456-1.032,2.556,2.556,0,0,1-1.282-3.052,63.886,63.886,0,0,1,15.066,1.8,5.8,5.8,0,0,1,3.137,1.53,6.1,6.1,0,0,1,1.019,3.52l1.327,18.171" transform="translate(-161.028 -84.646)" fill="#263238"/>
        <path id="Path_104" data-name="Path 104" d="M420.53,133.918a1.376,1.376,0,0,0-.122-.1.725.725,0,0,0-.423-.147.834.834,0,0,0-.641.263,1.282,1.282,0,0,0-.333.846v.09l-.077-.038a1.34,1.34,0,0,0-1.353.192,1.282,1.282,0,0,0-.34,1.507l.186.423-.308-.34a.846.846,0,0,0-.955-.135.923.923,0,0,0-.507,1.039,1.283,1.283,0,0,0,.244.551.7.7,0,0,0,.436.314.167.167,0,0,0,.16-.115c0-.058,0-.109-.1-.122a.372.372,0,0,0-.359.25,1.379,1.379,0,0,0,.064.923,3.571,3.571,0,0,0,.725,1.218c.224.25.378.359.372.372s-.045,0-.115-.071a3.572,3.572,0,0,1-.3-.263,3.527,3.527,0,0,1-.776-1.218,1.417,1.417,0,0,1-.083-1.013.487.487,0,0,1,.5-.327.256.256,0,0,1,.16.09.225.225,0,0,1,.039.2.3.3,0,0,1-.289.218.552.552,0,0,1-.321-.128,1.154,1.154,0,0,1-.231-.237,1.455,1.455,0,0,1-.276-.641,1.231,1.231,0,0,1,.077-.692.968.968,0,0,1,.519-.513.994.994,0,0,1,1.122.173l-.128.083a1.455,1.455,0,0,1,.4-1.68,1.436,1.436,0,0,1,1.481-.186l-.083.051a1.417,1.417,0,0,1,.385-.917.917.917,0,0,1,.705-.256.75.75,0,0,1,.442.186.645.645,0,0,1,.077.09S420.536,133.918,420.53,133.918Z" transform="translate(-162.608 -79.502)" fill="#263238"/>
        <path id="Path_105" data-name="Path 105" d="M402.966,143.861l-.045-.077a.526.526,0,0,1,0-.263.641.641,0,0,1,.231-.359.59.59,0,0,1,.551-.122l-.058.051a.712.712,0,0,1,.212-.6.75.75,0,0,1,.7-.231l-.077.045a1.686,1.686,0,0,1,.276-.641.641.641,0,0,1,.321-.218.507.507,0,0,1,.417.051l-.109.045a.91.91,0,0,1,1.744-.205l.25.609-.385-.532a.77.77,0,0,1-.109-.269.814.814,0,0,1,.333-.8.942.942,0,0,1,.821-.1,1.154,1.154,0,0,1,.641.474,1.73,1.73,0,0,1,.256.68H408.8a.641.641,0,0,1,.526-.539.968.968,0,0,1,.641.115,2.238,2.238,0,0,1,.808.712,1.135,1.135,0,0,1,.224.641,1.025,1.025,0,0,1,0,.18v-.18a1.154,1.154,0,0,0-.25-.641,2.308,2.308,0,0,0-.789-.641.911.911,0,0,0-.6-.1.519.519,0,0,0-.417.43l-.038.609-.09-.6a1.282,1.282,0,0,0-.8-1.032.814.814,0,0,0-.7.083.68.68,0,0,0-.269.641.532.532,0,0,0,.083.205l-.128.071a.767.767,0,0,0-1.468.173v.109l-.09-.064a.455.455,0,0,0-.558.135,1.508,1.508,0,0,0-.256.577v.058h-.058a.683.683,0,0,0-.789.7v.071h-.07a.513.513,0,0,0-.474.1.641.641,0,0,0-.231.314A.59.59,0,0,0,402.966,143.861Z" transform="translate(-158.092 -81.879)" fill="#263238"/>
        <path id="Path_106" data-name="Path 106" d="M432.037,156.585a1.431,1.431,0,0,0,.122-.6,1.514,1.514,0,0,0-.2-.692,1.282,1.282,0,0,0-.744-.59h-.045v-.045a.705.705,0,0,0-.192-.725.686.686,0,0,0-.391-.173.737.737,0,0,1-.494-.16,1.045,1.045,0,0,1-.218-.507.891.891,0,0,0-1.231-.641l-.263.122.186-.224a.821.821,0,0,0,0-1.013.808.808,0,0,0-1.064-.1l-.173.135.064-.212a1.252,1.252,0,0,0-2.109-1.212l-.154.16v-.218a1.885,1.885,0,0,0-.263-1.128,2.027,2.027,0,0,0-.769-.757,1.783,1.783,0,0,0-1.026-.2,2,2,0,0,0-1.6,1.116l-.077.18-.058-.186a1.116,1.116,0,0,0-.641-.68,1.411,1.411,0,0,0-.943-.058,2.507,2.507,0,0,0-1.359,1.116l-.038.058-.051-.045a2.565,2.565,0,0,0-2.039-.583,2.507,2.507,0,0,0-1.455.744,2.686,2.686,0,0,0-.583.891c-.09.231-.115.359-.122.359a1.472,1.472,0,0,1,.09-.372,2.611,2.611,0,0,1,.564-.923,2.565,2.565,0,0,1,1.494-.8,2.725,2.725,0,0,1,2.129.583h-.09a2.667,2.667,0,0,1,1.43-1.18,1.571,1.571,0,0,1,1.026.058,1.282,1.282,0,0,1,.75.769h-.135a2.116,2.116,0,0,1,1.712-1.205,1.873,1.873,0,0,1,1.109.218,2.148,2.148,0,0,1,.833.808,2.077,2.077,0,0,1,.282,1.218l-.135-.058a1.4,1.4,0,0,1,2.359,1.353l-.109-.077a.918.918,0,0,1,1.282,1.314l-.077-.1a1.026,1.026,0,0,1,1.141.25c.3.295.224.75.436.968a.673.673,0,0,0,.43.135.75.75,0,0,1,.442.205.776.776,0,0,1,.205.827v-.058a1.366,1.366,0,0,1,.776.641,1.539,1.539,0,0,1,.186.725,1.2,1.2,0,0,1-.09.455.545.545,0,0,1-.115.109Z" transform="translate(-162.113 -84.549)" fill="#455a64"/>
        <path id="Path_107" data-name="Path 107" d="M395.842,157.994a1.173,1.173,0,0,1-.128-.218,4.646,4.646,0,0,1-.295-.641,1.923,1.923,0,0,1-.077-1.128,1.4,1.4,0,0,1,.359-.641,1,1,0,0,1,.737-.308l-.064.077a1.282,1.282,0,0,1,.41-1.135,1.327,1.327,0,0,1,1.282-.346l-.09.083a1.616,1.616,0,0,1,.327-1.282,1.59,1.59,0,0,1,1.282-.6,1.635,1.635,0,0,1,.564.1c.167.051.346.1.462,0s.141-.269.25-.43a1.4,1.4,0,0,1,.385-.391,1.494,1.494,0,0,1,1.872.154H403a3.925,3.925,0,0,1,.308-.962,1.282,1.282,0,0,1,.641-.641,1.225,1.225,0,0,1,.814,0,3.461,3.461,0,0,1,.641.237,3.4,3.4,0,0,1,.789.539l.173.18c.038.045.058.071.051.071a4.393,4.393,0,0,0-1.045-.718,3.59,3.59,0,0,0-.641-.218,1.032,1.032,0,0,0-1.314.641,3.752,3.752,0,0,0-.282.93v.135l-.09-.1a1.353,1.353,0,0,0-1.693-.115,1.186,1.186,0,0,0-.346.346,1.828,1.828,0,0,0-.109.224.507.507,0,0,1-.18.25.442.442,0,0,1-.308.064,1.282,1.282,0,0,1-.282-.064,1.454,1.454,0,0,0-1.962,1.6v.115l-.115-.032a1.154,1.154,0,0,0-1.135.308,1.135,1.135,0,0,0-.385,1.007v.077h-.077a.9.9,0,0,0-.641.263,1.353,1.353,0,0,0-.34.571,1.847,1.847,0,0,0,.051,1.084C395.681,157.68,395.867,157.981,395.842,157.994Z" transform="translate(-155.36 -85.26)" fill="#455a64"/>
        <path id="Path_108" data-name="Path 108" d="M437.959,148.2a1.923,1.923,0,0,0-.135-.583,1.687,1.687,0,0,0-.417-.583,1.488,1.488,0,0,0-.872-.385h-.058v-.051a1.173,1.173,0,0,0,0-.9,1.212,1.212,0,0,0-.744-.718h-.051v-.051a1.071,1.071,0,0,0-.84-1.359.859.859,0,0,1-.526-.154c-.16-.173-.1-.391-.16-.532a.641.641,0,0,0-.846-.314l-.07.045v-.083a1.443,1.443,0,0,0-1.885-.9h-.064v-.071a1.282,1.282,0,0,0-1.923-.474l-.077.064-.038-.09a1.282,1.282,0,0,0-2.1,0l-.077.135-.058-.141a.885.885,0,0,0-1.7.359v.205l-.135-.154a1.475,1.475,0,0,0-2.347.365l-.045.115-.077-.1a1.494,1.494,0,0,0-2.629.782v.1l-.09-.045a1.962,1.962,0,0,0-2.872,1.821v.064h-.064a2.981,2.981,0,0,0-2.129.641,2.872,2.872,0,0,0-.943,1.411,3.041,3.041,0,0,0-.128,1.084,2.948,2.948,0,0,0,.038.385,1.832,1.832,0,0,1-.071-.378,2.886,2.886,0,0,1,.1-1.1,2.847,2.847,0,0,1,.949-1.468,3.026,3.026,0,0,1,2.193-.673l-.058.058a2.084,2.084,0,0,1,3.046-1.923l-.1.058a1.635,1.635,0,0,1,2.879-.866h-.122a1.526,1.526,0,0,1,1.173-.866,1.545,1.545,0,0,1,1.423.455l-.135.051a1.084,1.084,0,0,1,.641-.975,1.064,1.064,0,0,1,1.334.558h-.141a1.4,1.4,0,0,1,2.359,0h-.115a1.334,1.334,0,0,1,1.231-.257,1.282,1.282,0,0,1,.91.789l-.09-.038a1.577,1.577,0,0,1,2.065,1l-.1-.038a.737.737,0,0,1,1.026.385c.071.192,0,.391.128.487a.782.782,0,0,0,.462.122,1.135,1.135,0,0,1,.814.59,1.109,1.109,0,0,1,.1.917l-.032-.064a1.282,1.282,0,0,1,.8.782,1.212,1.212,0,0,1,0,.962v-.051a1.552,1.552,0,0,1,.9.423,1.6,1.6,0,0,1,.417.641,1.281,1.281,0,0,1,.1.442A.92.92,0,0,1,437.959,148.2Z" transform="translate(-162.008 -81.939)" fill="#455a64"/>
        <path id="Path_109" data-name="Path 109" d="M440.746,179a.274.274,0,0,1,.122.045,1.493,1.493,0,0,1,.314.186,2.308,2.308,0,0,1,.808,1.052,2.943,2.943,0,0,1,0,1.968,2.3,2.3,0,0,1-.7.955,2.52,2.52,0,0,1-1.135.558,2.449,2.449,0,0,1-1.282-.154,2.232,2.232,0,0,1-.962-.68,2.507,2.507,0,0,1-.526-1.924,2.346,2.346,0,0,1,.526-1.218,1.232,1.232,0,0,1,.282-.231l.115-.051a1.782,1.782,0,0,0-.353.321,2.334,2.334,0,0,0-.462,1.193,2.4,2.4,0,0,0,.519,1.789,2.1,2.1,0,0,0,.91.641,2.379,2.379,0,0,0,1.18.147,2.469,2.469,0,0,0,1.071-.526,2.225,2.225,0,0,0,.641-.891,2.853,2.853,0,0,0,0-1.879,2.321,2.321,0,0,0-.744-1.045A.886.886,0,0,0,440.746,179Z" transform="translate(-170.456 -95.802)" fill="#e0e0e0"/>
        <path id="Path_110" data-name="Path 110" d="M418.87,179.045a1.052,1.052,0,0,0-.673-.314,1.282,1.282,0,0,0-1.045.3.936.936,0,0,0-.237,1.026v-.1a1.032,1.032,0,0,0,.641.821,1.116,1.116,0,0,0,1.032-.109,1.186,1.186,0,0,0,.513-.9A.962.962,0,0,0,418.87,179.045Z" transform="translate(-163.097 -95.7)" fill="#eb996e"/>
        <path id="Path_111" data-name="Path 111" d="M429.737,164.864a1.282,1.282,0,0,1-.93,1.122c.237,0,.295.385.128.551a.808.808,0,0,1-.641.167,3.693,3.693,0,0,1-2.8-1.77,1.071,1.071,0,0,1-.462-1.616.949.949,0,0,1-.59-1.16.769.769,0,0,1-.9-.827,9.977,9.977,0,0,1-3.122-2.359,1,1,0,0,1,.09-1.321.75.75,0,0,1-.231-1.237.712.712,0,0,1-.507-.891c-.43-.038-2.565-.218-2.565-.641-1.193-.365-1.738-.968-1.789-1.282s-.673-.25-.712-.571c-.058-.43.513-.641.955-.641a7.957,7.957,0,0,1,3.783.789,15.7,15.7,0,0,1,3.6,2.674l1.526,1.379c.385.346.808.814.641,1.282.365-.186.808.135.987.513s.205.808.4,1.167a5.591,5.591,0,0,0,.712.846,1.154,1.154,0,0,1,.333,1.007,1.423,1.423,0,0,1,1.488.949c.327-.218.8.122.853.513a1.77,1.77,0,0,1-.327,1.109" transform="translate(-162.326 -86.25)" fill="#263238"/>
        <path id="Path_112" data-name="Path 112" d="M418.964,167.924a6.738,6.738,0,0,1,0-.827,3.328,3.328,0,0,1,2.263-2.744,3.276,3.276,0,0,1,1.731-.077,2.885,2.885,0,0,1,.878.333,3.019,3.019,0,0,1,.782.6,3.276,3.276,0,0,1,.513,3.847,3.1,3.1,0,0,1-.59.782,3.168,3.168,0,0,1-.763.551,3.327,3.327,0,0,1-1.693.378,3.276,3.276,0,0,1-1.455-.423,3.315,3.315,0,0,1-1.449-1.629,6.006,6.006,0,0,1-.237-.782.886.886,0,0,0,0,.212,1.675,1.675,0,0,0,.058.25,1.719,1.719,0,0,0,.109.34,3.315,3.315,0,0,0,1.449,1.7,3.353,3.353,0,0,0,1.5.455,3.475,3.475,0,0,0,1.757-.378,3.3,3.3,0,0,0,.8-.577,3.261,3.261,0,0,0,.641-.814,3.392,3.392,0,0,0-.539-4,3.129,3.129,0,0,0-.814-.641,3.2,3.2,0,0,0-.923-.346,3.437,3.437,0,0,0-1.8.1,3.373,3.373,0,0,0-2.283,2.847v.359a1.4,1.4,0,0,0,0,.256.886.886,0,0,0,.058.231Z" transform="translate(-163.832 -90.439)" fill="#455a64"/>
        <path id="Path_113" data-name="Path 113" d="M404.128,167.184a6.6,6.6,0,0,1,0-.821,3.389,3.389,0,0,1,2.27-2.763,3.276,3.276,0,0,1,1.731-.083,2.821,2.821,0,0,1,.878.333,3.051,3.051,0,0,1,.782.6,3.276,3.276,0,0,1,.513,3.847,3.1,3.1,0,0,1-.59.782,3,3,0,0,1-.763.551,3.327,3.327,0,0,1-1.693.378,3.276,3.276,0,0,1-1.455-.417,3.353,3.353,0,0,1-1.449-1.635,6,6,0,0,1-.237-.782.763.763,0,0,0,0,.212,1.2,1.2,0,0,0,.051.256,1.815,1.815,0,0,0,.109.333,3.321,3.321,0,0,0,1.449,1.706,3.379,3.379,0,0,0,3.257.071,3.3,3.3,0,0,0,.8-.577,3.155,3.155,0,0,0,.641-.814,3.392,3.392,0,0,0-.539-4,3.269,3.269,0,0,0-.814-.641,3.206,3.206,0,0,0-.923-.346,3.443,3.443,0,0,0-1.8.1,3.353,3.353,0,0,0-2.276,2.853,2.329,2.329,0,0,0,0,.353,1.525,1.525,0,0,0,0,.263A.865.865,0,0,0,404.128,167.184Z" transform="translate(-158.51 -90.166)" fill="#455a64"/>
        <path id="Path_114" data-name="Path 114" d="M403.875,164.508a3.488,3.488,0,0,1,2.962-1.539,5.181,5.181,0,0,1,3.507,1.763,4.488,4.488,0,0,1,2.994.231,4.091,4.091,0,0,1,3.3-1.584,4.773,4.773,0,0,1,3.289,1.885l1.494.218-.147,1.334-1.68-.205s-.7-2.436-2.763-2.565c-2.776-.18-3.251,1.872-3.251,1.872l-.641-.077.212-.391a4.321,4.321,0,0,0-2.648-.1v.474h-.468a3.3,3.3,0,0,0-3.206-2.193,3.129,3.129,0,0,0-3.142,2.731l-1.1-.122.038-1.314Z" transform="translate(-157.976 -90.049)" fill="#455a64"/>
        <path id="Path_115" data-name="Path 115" d="M424.41,172.548a1.366,1.366,0,0,0,.641,0,2.86,2.86,0,0,0,2.154-1.872,1.385,1.385,0,0,0,.115-.6,5.1,5.1,0,0,1-.212.564,3.065,3.065,0,0,1-2.084,1.8C424.641,172.516,424.41,172.529,424.41,172.548Z" transform="translate(-165.809 -92.601)" fill="#fff"/>
        <path id="Path_116" data-name="Path 116" d="M410.39,171.666a1.077,1.077,0,0,0,.487-.071,2.417,2.417,0,0,0,1-.641,2.385,2.385,0,0,0,.6-1.013,1.051,1.051,0,0,0,.07-.481,3.416,3.416,0,0,0-.167.449,2.815,2.815,0,0,1-.609.949,2.694,2.694,0,0,1-.936.641A4.713,4.713,0,0,0,410.39,171.666Z" transform="translate(-160.778 -92.379)" fill="#fff"/>
        <path id="Path_117" data-name="Path 117" d="M423.19,252.536l18.145-5.847-1.18-4.1,10.624-4.245c1.507,4.238,2.622,6.989,3.033,10.182,0,.192.045.385.051.577a8.566,8.566,0,0,1-7.393,8.848l-21.883,1.462Z" transform="translate(-165.371 -117.095)" fill="#ffbe9d"/>
        <path id="Path_118" data-name="Path 118" d="M418.971,177.82c-.135,0-.25.9-1.122,1.455s-1.84.34-1.859.468.192.205.609.269a2.3,2.3,0,0,0,1.552-.34,1.988,1.988,0,0,0,.878-1.231C419.112,178.064,419.035,177.82,418.971,177.82Z" transform="translate(-162.787 -95.378)" fill="#263238"/>
        <rect id="Rectangle_16" data-name="Rectangle 16" width="64.495" height="80.672" transform="translate(164.08 140.476) rotate(-76.74)" fill="#fafafa"/>
        <path id="Path_119" data-name="Path 119" d="M370.148,188.788a1.471,1.471,0,0,1-.385-.077l-1.1-.25-4.27-.981L348.3,183.748l-56.711-13.259.25-.154c-4.4,18.684-9.438,40.105-14.747,62.77h0l-.173-.276L355.4,251.379l-.237.141c4.488-18.889,8.22-34.553,10.829-45.523,1.314-5.476,2.34-9.771,3.046-12.714.353-1.462.641-2.565.814-3.353s.295-1.161.295-1.161-.077.378-.244,1.128-.43,1.879-.763,3.328c-.68,2.937-1.673,7.226-2.937,12.7-2.565,10.99-6.239,26.711-10.663,45.671l-.045.192-.186-.045-78.537-18.446-.224-.058.051-.224h0c5.347-22.665,10.406-44.08,14.811-62.764l.051-.205.205.045,56.8,13.5,16.029,3.847,4.219,1.019,1.077.263Z" transform="translate(-112.752 -92.587)" fill="#263238"/>
        <rect id="Rectangle_17" data-name="Rectangle 17" width="56.203" height="74.771" transform="translate(167.463 137.878) rotate(-76.661)" fill="#455a64"/>
        <path id="Path_120" data-name="Path 120" d="M261.57,198.192l33.54-28.1,10.765,25.063,13.4-8.88,15.3,29.122Z" transform="translate(-93.855 -61.033)" fill="#455a64"/>
        <path id="Path_121" data-name="Path 121" d="M365.079,217.022a5.905,5.905,0,1,1-.722-4.466A5.905,5.905,0,0,1,365.079,217.022Z" transform="translate(-140.338 -106.837)" fill="#455a64"/>
        <g id="Group_145" data-name="Group 145" transform="translate(167.715 109.057)" opacity="0.3">
          <path id="Path_122" data-name="Path 122" d="M261.57,198.192l33.54-28.1,10.765,25.063,13.4-8.88,15.3,29.122Z" transform="translate(-261.57 -170.09)"/>
        </g>
        <g id="Group_146" data-name="Group 146" transform="translate(213.088 102.916)" opacity="0.3">
          <path id="Path_123" data-name="Path 123" d="M365.079,217.022a5.905,5.905,0,1,1-.722-4.466A5.905,5.905,0,0,1,365.079,217.022Z" transform="translate(-353.427 -209.753)"/>
        </g>
        <path id="Path_124" data-name="Path 124" d="M348.42,181.513a3.655,3.655,0,0,0,.474-1.532,1.334,1.334,0,0,0-.8-1.282,1.866,1.866,0,0,0-1.411.269,2.674,2.674,0,0,1-1.391.436,10.431,10.431,0,0,1-1.052-.321c-.359-.077-.821.045-.91.4a.641.641,0,0,0,.282.641,1.872,1.872,0,0,0,.673.263l4.315,1.045" transform="translate(-136.714 -95.679)" fill="#ffbe9d"/>
        <path id="Path_125" data-name="Path 125" d="M332.21,175.487s1.026,3.289,1.513,3.366a1.975,1.975,0,0,0,1.128-.372s-.186,3.065,1.808,3.45c0,0,.365.936,1.045,1s.8-.789.8-.789,1.1,1.282,1.507-.135a35.681,35.681,0,0,0,.7-4.642s-.4-1.455-1.019-1.282a1.731,1.731,0,0,0-.91.5,4.257,4.257,0,0,0-1.282-1.173.866.866,0,0,0-1.09.244s-.923-1.423-1.494-1.007-.295.808-.295.808-1.2-.917-1.712-.68A1.545,1.545,0,0,0,332.21,175.487Z" transform="translate(-132.725 -94.212)" fill="#ffbe9d"/>
        <path id="Path_126" data-name="Path 126" d="M341.963,183.179a14.228,14.228,0,0,0,.282-2.815,14.753,14.753,0,0,0,0-2.834,29.7,29.7,0,0,0-.282,5.649Z" transform="translate(-136.201 -95.274)" fill="#eb996e"/>
        <path id="Path_127" data-name="Path 127" d="M336.208,178.922a4.263,4.263,0,0,0,.109-1.532,3.1,3.1,0,0,0-.282-1.52,6.6,6.6,0,0,0,0,1.526,4.282,4.282,0,0,0,.173,1.526Z" transform="translate(-134.082 -94.679)" fill="#eb996e"/>
        <path id="Path_128" data-name="Path 128" d="M339,182.487a18.083,18.083,0,0,0,0-3.206,17.673,17.673,0,0,0-.263-3.161,18.083,18.083,0,0,0,0,3.206,17.682,17.682,0,0,0,.263,3.161Z" transform="translate(-135.043 -94.768)" fill="#eb996e"/>
        <path id="Path_129" data-name="Path 129" d="M412.54,258.761l-7.816-3.071-11.214,2.5a2.212,2.212,0,0,0,1.962,1.372,31,31,0,0,0,5.713-.641l-6.739,2.308a3.355,3.355,0,0,0,2.8,1.019c1.513-.333,5.29-1.116,5.29-1.116L398,263.5a1.924,1.924,0,0,0,2.084.917,20.011,20.011,0,0,0,4.418-1.462s5.815,2.661,7.636,2.661,2.565-.051,2.565-.051Z" transform="translate(-154.721 -123.321)" fill="#ffbe9d"/>
        <path id="Path_130" data-name="Path 130" d="M405.388,255.667c.051,0-8.194-.417-8.194-.417a.9.9,0,0,0,.4,1.071,10.7,10.7,0,0,0,3.206.814Z" transform="translate(-156.026 -123.163)" fill="#ffbe9d"/>
        <path id="Path_131" data-name="Path 131" d="M404.2,255.65a7.88,7.88,0,0,1-1.545.481c-.968.25-2.308.583-3.8.93s-2.834.641-3.847.834a7.591,7.591,0,0,1-1.6.25,8.067,8.067,0,0,1,1.552-.481c.968-.256,2.308-.583,3.789-.93s2.834-.641,3.815-.834A7.592,7.592,0,0,1,404.2,255.65Z" transform="translate(-154.685 -123.306)" fill="#eb996e"/>
        <path id="Path_132" data-name="Path 132" d="M408.357,260.176c0,.1-.789,0-1.718.122a15.866,15.866,0,0,1-1.7.3A3.687,3.687,0,0,1,408.357,260.176Z" transform="translate(-158.823 -124.844)" fill="#eb996e"/>
        <path id="Path_133" data-name="Path 133" d="M410.27,263.969a5.849,5.849,0,0,0-1.327-.346,5.978,5.978,0,0,0-1.346.25c-.032-.032.07-.18.308-.327a1.923,1.923,0,0,1,1.052-.256,1.872,1.872,0,0,1,1.026.333C410.206,263.783,410.3,263.936,410.27,263.969Z" transform="translate(-159.774 -126.047)" fill="#eb996e"/>
        <path id="Path_134" data-name="Path 134" d="M60.251,401.792a7.053,7.053,0,0,1,3.9,3.937,12.413,12.413,0,0,1,.814,5.6c-.2,3.674-2.058,7.482-4.129,10.528-3.206-2.507-4.206-7.149-4.559-9.534-.545-3.77.744-10.9,3.969-10.534" transform="translate(-33.67 -175.742)" fill="#44b4bf"/>
        <path id="Path_135" data-name="Path 135" d="M69.479,437.672a6.04,6.04,0,0,1,1.616-5.854,8.015,8.015,0,0,1,5.771-2.193,3.385,3.385,0,0,1,2.667,1.02,2.565,2.565,0,0,1,.192,2.61,5.219,5.219,0,0,1-1.827,2.02c-2.565,1.827-5.386,3.122-8.451,2.4" transform="translate(-38.377 -185.731)" fill="#44b4bf"/>
        <path id="Path_136" data-name="Path 136" d="M64.45,451.17a4.086,4.086,0,0,1,.064-.757c.064-.532.154-1.225.256-2.052a20.934,20.934,0,0,1,1.718-6.6,12.965,12.965,0,0,1,4.36-5.213A9.21,9.21,0,0,1,72.7,435.6c.231-.09.417-.128.539-.167s.192-.051.192-.038a13.559,13.559,0,0,0-2.469,1.282,13.414,13.414,0,0,0-4.232,5.174,22.768,22.768,0,0,0-1.77,6.508c-.141.866-.25,1.558-.34,2.039A4.968,4.968,0,0,1,64.45,451.17Z" transform="translate(-36.644 -187.803)" fill="#263238"/>
        <path id="Path_137" data-name="Path 137" d="M61.75,410.42a1.186,1.186,0,0,1,.058.327c0,.244.064.551.109.936.1.814.212,2,.34,3.456.269,2.924.577,6.963.814,11.432s.365,8.521.417,11.451c0,1.468.032,2.654.032,3.475v.943a1.411,1.411,0,0,1,0,.327,1.826,1.826,0,0,1,0-.327q0-.365-.038-.943c0-.853-.071-2.033-.122-3.469-.1-2.93-.25-6.976-.487-11.445s-.519-8.5-.737-11.426c-.1-1.436-.192-2.616-.256-3.462,0-.391-.045-.7-.058-.943A1.872,1.872,0,0,1,61.75,410.42Z" transform="translate(-35.676 -178.842)" fill="#263238"/>
        <path id="Path_138" data-name="Path 138" d="M54.748,440.364a14.151,14.151,0,0,0-8.335-9.9c-1.052-.436-2.417-.68-3.206.135s-.532,2.18-.058,3.206a12.08,12.08,0,0,0,11.541,6.848" transform="translate(-28.841 -185.891)" fill="#44b4bf"/>
        <path id="Path_139" data-name="Path 139" d="M49.61,436a4.277,4.277,0,0,1,.641.25,5.766,5.766,0,0,1,.757.353,9.554,9.554,0,0,1,.975.532,12.989,12.989,0,0,1,1.154.789,15.2,15.2,0,0,1,1.212.955,16.031,16.031,0,0,1,2.334,2.661,15.832,15.832,0,0,1,1.616,3.155,14.658,14.658,0,0,1,.449,1.481c.128.468.192.917.263,1.321s.083.782.115,1.1a6.449,6.449,0,0,1,0,.84,3.449,3.449,0,0,1-.038.712c-.058,0,0-1.019-.282-2.622a11.821,11.821,0,0,0-.295-1.282,13.98,13.98,0,0,0-.462-1.455,16.029,16.029,0,0,0-1.609-3.084,16.672,16.672,0,0,0-2.276-2.635,13.863,13.863,0,0,0-1.173-.975c-.372-.3-.75-.539-1.084-.763C50.54,436.449,49.591,436.083,49.61,436Z" transform="translate(-31.319 -188.021)" fill="#263238"/>
      </g>
      <g transform="matrix(1, 0, 0, 1, 44.5, 157.51)" filter="url(#Path_14360)">
        <path id="Path_14360-2" data-name="Path 14360" d="M23.149,16.832V-3.113H3.774V-15.991l19.375.114V-35.594H36.027v19.6l19.489.114V-3.113H36.027V16.832Z" transform="translate(114.6 222.4)" fill="#ebebeb"/>
      </g>
    </g>
  </g>
</svg>
