<svg xmlns="http://www.w3.org/2000/svg" xmlns:xlink="http://www.w3.org/1999/xlink" width="67.089" height="65.555" viewBox="0 0 67.089 65.555">
  <defs>
    <linearGradient id="linear-gradient" x1="0.5" x2="0.5" y2="1" gradientUnits="objectBoundingBox">
      <stop offset="0" stop-color="#0b7f8c"/>
      <stop offset="1" stop-color="#085860"/>
    </linearGradient>
  </defs>
  <g id="breakfast" transform="translate(0 -1.837)">
    <g id="Group_48705" data-name="Group 48705" transform="translate(0 1.837)">
      <path id="Path_43201" data-name="Path 43201" d="M167.706,12.132a32.032,32.032,0,0,0-11.28,2.04l-.376,59.983a32.106,32.106,0,1,0,11.655-62.023Z" transform="translate(-135.603 -10.783)" fill="url(#linear-gradient)"/>
      <path id="Path_43202" data-name="Path 43202" d="M67.089,53.82c0-14.96-13.627-27.411-31.636-30.078a6.972,6.972,0,1,1-5.667-.5c-.516-.016-1.034-.026-1.555-.026a49.3,49.3,0,0,0-7.276.538,32.114,32.114,0,0,0-.376,60.083,49.244,49.244,0,0,0,7.652.595C49.691,84.428,67.089,70.724,67.089,53.82Z" transform="translate(0 -20.411)" fill="#fff"/>
      <path id="Path_43203" data-name="Path 43203" d="M41.81,115.019l-6.486-3.443c-4.889-.915-6.4-5.32-6.864-7.733a2.148,2.148,0,0,0-1.69-1.721c-5.55-1.051-4.357-8.056-4.357-8.056L16.705,82.972c-3.275-2.142-2.845-5.54-2.17-7.611a2.137,2.137,0,0,0-.842-2.458,4.171,4.171,0,0,1-1.627-4.348,2.151,2.151,0,0,0-.243-1.335,32.107,32.107,0,0,0,8.756,54.855,49.247,49.247,0,0,0,7.652.595,47.79,47.79,0,0,0,15.631-2.579c-3.781-1.144-2.052-5.072-2.052-5.072Z" transform="translate(0 -58.653)" fill="#fff"/>
      <path id="Path_43204" data-name="Path 43204" d="M132.72,109.97a31.355,31.355,0,0,0-12.179-5.7,6.963,6.963,0,0,1-10.8-.972c-1.285.065-2.565.191-3.831.382a10.051,10.051,0,0,1,3.6,1.356,9.941,9.941,0,0,1,4.718,9.5,22.223,22.223,0,0,0,.313,6.814,13.682,13.682,0,0,1-10.906,16.611,42.618,42.618,0,0,0-6.739,1.931q-.414.16-.831.278c11.408,5.464,26.909,4.358,36.657-3.321,9.851-7.759,9.872-19.1,0-26.875Z" transform="translate(-83.476 -89.999)" fill="#d3dcfb"/>
      <path id="Path_43205" data-name="Path 43205" d="M96.064,343.057a37.634,37.634,0,0,0,22.736,2.755c-4.889-.915-6.4-5.32-6.864-7.733a2.2,2.2,0,0,0-.782-1.3,14.309,14.309,0,0,1-7.52,4.07,42.618,42.618,0,0,0-6.739,1.931q-.415.16-.831.278Z" transform="translate(-83.476 -292.89)" fill="#bec8f7"/>
      <path id="Path_43206" data-name="Path 43206" d="M30.983,114.714A10.237,10.237,0,0,0,15.3,105.076a21.926,21.926,0,0,1-6.156,2.77,14.427,14.427,0,0,0-6.958,4.1,32.172,32.172,0,0,0,1.493,26.6,9.674,9.674,0,0,0,9.821,1.719,42.6,42.6,0,0,1,6.7-1.92,13.913,13.913,0,0,0,11.086-16.887A21.928,21.928,0,0,1,30.983,114.714Z" transform="translate(0 -90.159)" fill="#fcf0be"/>
      <path id="Path_43207" data-name="Path 43207" d="M27.852,147.884a2.081,2.081,0,0,0-1.081-.574c-5.55-1.051-4.357-8.056-4.357-8.056l-5.708-11.095c-3.275-2.142-2.845-5.54-2.17-7.611a2.186,2.186,0,0,0,.008-1.326,21.3,21.3,0,0,1-5.4,2.306,14.427,14.427,0,0,0-6.958,4.1,32.17,32.17,0,0,0,1.493,26.6,9.674,9.674,0,0,0,9.821,1.719,42.6,42.6,0,0,1,6.7-1.92,14.59,14.59,0,0,0,7.647-4.143Z" transform="translate(0 -103.841)" fill="#ffe98d"/>
      <circle id="Ellipse_17955" data-name="Ellipse 17955" cx="7.972" cy="7.972" r="7.972" transform="matrix(0.16, -0.987, 0.987, 0.16, 5.993, 38.725)" fill="#ffb332"/>
      <circle id="Ellipse_17956" data-name="Ellipse 17956" cx="2.542" cy="2.542" r="2.542" transform="translate(14.619 27.054)" fill="#ffc839"/>
      <circle id="Ellipse_17957" data-name="Ellipse 17957" cx="1.578" cy="1.578" r="1.578" transform="translate(12.369 32.137)" fill="#ffc839"/>
      <g id="Group_48691" data-name="Group 48691" transform="translate(22.814 33.113)">
        <path id="Path_43208" data-name="Path 43208" d="M174.8,277.086a3.482,3.482,0,0,1,.708-4.873,17.787,17.787,0,0,0,7.116-14.191,3.482,3.482,0,0,1,6.963,0,24.783,24.783,0,0,1-9.914,19.771A3.482,3.482,0,0,1,174.8,277.086Z" transform="translate(-174.107 -254.541)" fill="#b76c4e"/>
      </g>
      <path id="Path_43209" data-name="Path 43209" d="M188.342,329.042c-.038-.045-.074-.089-.108-.131a.918.918,0,0,0-1.022-.306c-3.352,1.14-4.866-.233-5.394-.943a.934.934,0,0,0-.277-.248,17.765,17.765,0,0,1-6.035,8.124,3.482,3.482,0,1,0,4.165,5.58A24.765,24.765,0,0,0,188.342,329.042Z" transform="translate(-151.293 -284.752)" fill="#a05838"/>
      <g id="Group_48692" data-name="Group 48692" transform="translate(29.529 33.113)">
        <path id="Path_43210" data-name="Path 43210" d="M226.05,277.086a3.482,3.482,0,0,1,.708-4.873,17.787,17.787,0,0,0,7.116-14.191,3.482,3.482,0,0,1,6.963,0,24.783,24.783,0,0,1-9.914,19.771A3.482,3.482,0,0,1,226.05,277.086Z" transform="translate(-225.358 -254.541)" fill="#a05838"/>
      </g>
      <path id="Path_43211" data-name="Path 43211" d="M226.05,348.241a3.482,3.482,0,0,0,4.873.708,24.73,24.73,0,0,0,8.072-10.455,1.979,1.979,0,0,1-.28-.291.905.905,0,0,0-.973-.3c-2.883.866-4.36-.372-4.971-1.156a.922.922,0,0,0-.461-.317,17.734,17.734,0,0,1-5.552,6.943A3.482,3.482,0,0,0,226.05,348.241Z" transform="translate(-195.829 -292.584)" fill="#823c26"/>
      <g id="Group_48693" data-name="Group 48693" transform="translate(36.245 33.113)">
        <path id="Path_43212" data-name="Path 43212" d="M277.3,277.086a3.482,3.482,0,0,1,.708-4.873,17.787,17.787,0,0,0,7.116-14.191,3.482,3.482,0,0,1,6.963,0,24.783,24.783,0,0,1-9.914,19.771A3.482,3.482,0,0,1,277.3,277.086Z" transform="translate(-276.61 -254.541)" fill="#b76c4e"/>
      </g>
      <path id="Path_43213" data-name="Path 43213" d="M286.218,348.825a.919.919,0,0,0-.865-.217,1.865,1.865,0,0,1-2.1-.615.892.892,0,0,0-.436-.3,17.684,17.684,0,0,1-4.805,5.466,3.482,3.482,0,1,0,4.165,5.58,24.637,24.637,0,0,0,6.624-7.489Z" transform="translate(-240.364 -302.373)" fill="#a05838"/>
      <g id="Group_48694" data-name="Group 48694" transform="translate(34.519 24.042)">
        <path id="Path_43214" data-name="Path 43214" d="M264.314,191.587a1.742,1.742,0,0,1-.647-2.376,1.318,1.318,0,0,0,0-1.286,1.741,1.741,0,1,1,3.023-1.729,4.8,4.8,0,0,1,0,4.744A1.742,1.742,0,0,1,264.314,191.587Z" transform="translate(-263.436 -185.319)" fill="#aad331"/>
      </g>
      <g id="Group_48695" data-name="Group 48695" transform="translate(37.876 24.042)">
        <path id="Path_43215" data-name="Path 43215" d="M289.937,191.587a1.742,1.742,0,0,1-.647-2.376,1.318,1.318,0,0,0,0-1.286,1.741,1.741,0,1,1,3.023-1.729,4.8,4.8,0,0,1,0,4.744A1.742,1.742,0,0,1,289.937,191.587Z" transform="translate(-289.059 -185.319)" fill="#87c121"/>
      </g>
      <g id="Group_48696" data-name="Group 48696" transform="translate(41.234 24.042)">
        <path id="Path_43216" data-name="Path 43216" d="M315.559,191.587a1.742,1.742,0,0,1-.647-2.376,1.318,1.318,0,0,0,0-1.286,1.741,1.741,0,0,1,3.023-1.729,4.8,4.8,0,0,1,0,4.744A1.742,1.742,0,0,1,315.559,191.587Z" transform="translate(-314.682 -185.319)" fill="#aad331"/>
      </g>
      <g id="Group_48697" data-name="Group 48697" transform="translate(44.591 24.042)">
        <path id="Path_43217" data-name="Path 43217" d="M341.184,191.587a1.742,1.742,0,0,1-.647-2.376,1.318,1.318,0,0,0,0-1.286,1.741,1.741,0,1,1,3.023-1.729,4.8,4.8,0,0,1,0,4.744A1.742,1.742,0,0,1,341.184,191.587Z" transform="translate(-340.307 -185.319)" fill="#87c121"/>
      </g>
      <g id="Group_48698" data-name="Group 48698" transform="translate(47.949 24.042)">
        <path id="Path_43218" data-name="Path 43218" d="M366.807,191.587a1.742,1.742,0,0,1-.647-2.376,1.317,1.317,0,0,0,0-1.286,1.741,1.741,0,0,1,3.023-1.729,4.8,4.8,0,0,1,0,4.744A1.742,1.742,0,0,1,366.807,191.587Z" transform="translate(-365.93 -185.319)" fill="#aad331"/>
      </g>
      <g id="Group_48699" data-name="Group 48699" transform="translate(37.876 17.543)">
        <path id="Path_43219" data-name="Path 43219" d="M289.937,141.991a1.742,1.742,0,0,1-.647-2.376,1.318,1.318,0,0,0,0-1.286,1.741,1.741,0,1,1,3.023-1.729,4.8,4.8,0,0,1,0,4.744A1.742,1.742,0,0,1,289.937,141.991Z" transform="translate(-289.059 -135.722)" fill="#aad331"/>
      </g>
      <g id="Group_48700" data-name="Group 48700" transform="translate(41.234 17.543)">
        <path id="Path_43220" data-name="Path 43220" d="M315.559,141.991a1.742,1.742,0,0,1-.647-2.376,1.318,1.318,0,0,0,0-1.286,1.741,1.741,0,0,1,3.023-1.729,4.8,4.8,0,0,1,0,4.744A1.742,1.742,0,0,1,315.559,141.991Z" transform="translate(-314.682 -135.722)" fill="#87c121"/>
      </g>
      <g id="Group_48701" data-name="Group 48701" transform="translate(44.591 17.543)">
        <path id="Path_43221" data-name="Path 43221" d="M341.184,141.991a1.742,1.742,0,0,1-.647-2.376,1.318,1.318,0,0,0,0-1.286,1.741,1.741,0,1,1,3.023-1.729,4.8,4.8,0,0,1,0,4.744A1.742,1.742,0,0,1,341.184,141.991Z" transform="translate(-340.307 -135.722)" fill="#aad331"/>
      </g>
      <g id="Group_48702" data-name="Group 48702" transform="translate(47.949 17.543)">
        <path id="Path_43222" data-name="Path 43222" d="M366.807,141.991a1.742,1.742,0,0,1-.647-2.376,1.317,1.317,0,0,0,0-1.286,1.741,1.741,0,0,1,3.023-1.729,4.8,4.8,0,0,1,0,4.744A1.742,1.742,0,0,1,366.807,141.991Z" transform="translate(-365.93 -135.722)" fill="#87c121"/>
      </g>
      <g id="Group_48703" data-name="Group 48703" transform="translate(51.306 24.042)">
        <path id="Path_43223" data-name="Path 43223" d="M392.43,191.587a1.742,1.742,0,0,1-.647-2.376,1.317,1.317,0,0,0,0-1.286,1.741,1.741,0,0,1,3.023-1.729,4.8,4.8,0,0,1,0,4.744A1.742,1.742,0,0,1,392.43,191.587Z" transform="translate(-391.553 -185.319)" fill="#87c121"/>
      </g>
      <circle id="Ellipse_17958" data-name="Ellipse 17958" cx="3.897" cy="3.897" r="3.897" transform="translate(43.653 46.076) rotate(-22.514)" fill="#ffb332"/>
      <circle id="Ellipse_17959" data-name="Ellipse 17959" cx="3.897" cy="3.897" r="3.897" transform="translate(52.944 33.998)" fill="#ffb332"/>
      <circle id="Ellipse_17960" data-name="Ellipse 17960" cx="1.696" cy="1.696" r="1.696" transform="translate(56.062 35.178)" fill="#ffc839"/>
      <ellipse id="Ellipse_17961" data-name="Ellipse 17961" cx="1.696" cy="1.696" rx="1.696" ry="1.696" transform="translate(46.882 47.266) rotate(-22.514)" fill="#ffc839"/>
      <circle id="Ellipse_17962" data-name="Ellipse 17962" cx="7.206" cy="7.206" r="7.206" transform="translate(22.65 13.317) rotate(-67.486)" fill="#ff4155"/>
      <circle id="Ellipse_17963" data-name="Ellipse 17963" cx="2.698" cy="2.698" r="2.698" transform="translate(30.846 5.664)" fill="#ff7186"/>
      <g id="Group_48704" data-name="Group 48704" transform="translate(23.691 1.053)">
        <path id="Path_43224" data-name="Path 43224" d="M189.166,26.6a8.367,8.367,0,1,1,8.367-8.367,8.376,8.376,0,0,1-8.367,8.367Zm0-14.412a6.046,6.046,0,1,0,6.046,6.046,6.053,6.053,0,0,0-6.046-6.046Z" transform="translate(-180.799 -9.87)" fill="#d3dcfb"/>
      </g>
      <path id="Path_43225" data-name="Path 43225" d="M193.8,29.822h0a6.043,6.043,0,1,1-7.69-9.089c-1.761-.051-1.205-1.952-1.194-1.99a8.364,8.364,0,1,0,10.747,12.465c-2.005.286-1.863-1.386-1.863-1.386Z" transform="translate(-157.107 -16.528)" fill="#bec8f7"/>
      <circle id="Ellipse_17964" data-name="Ellipse 17964" cx="3.897" cy="3.897" r="3.897" transform="translate(48.798 46.52) rotate(-76.7)" fill="#ffc839"/>
      <circle id="Ellipse_17965" data-name="Ellipse 17965" cx="1.696" cy="1.696" r="1.696" transform="translate(52.349 41.337)" fill="#ffdd40"/>
    </g>
    <path id="Path_43226" data-name="Path 43226" d="M377.715,142.609a.83.83,0,1,1-.83-.83A.83.83,0,0,1,377.715,142.609Z" transform="translate(-326.779 -121.605)" fill="#aad331"/>
    <path id="Path_43227" data-name="Path 43227" d="M350.443,142.609a.83.83,0,1,1-.83-.83A.83.83,0,0,1,350.443,142.609Z" transform="translate(-303.081 -121.605)" fill="#cce541"/>
    <path id="Path_43228" data-name="Path 43228" d="M299.2,142.609a.83.83,0,1,1-.83-.83A.83.83,0,0,1,299.2,142.609Z" transform="translate(-258.55 -121.605)" fill="#cce541"/>
    <path id="Path_43229" data-name="Path 43229" d="M324.82,142.609a.83.83,0,1,1-.83-.83A.83.83,0,0,1,324.82,142.609Z" transform="translate(-280.815 -121.605)" fill="#aad331"/>
    <path id="Path_43230" data-name="Path 43230" d="M350.233,192.609a.83.83,0,1,1-.83-.83A.83.83,0,0,1,350.233,192.609Z" transform="translate(-302.898 -165.054)" fill="#aad331"/>
    <path id="Path_43231" data-name="Path 43231" d="M322.961,192.609a.83.83,0,1,1-.83-.83A.83.83,0,0,1,322.961,192.609Z" transform="translate(-279.2 -165.054)" fill="#cce541"/>
    <path id="Path_43232" data-name="Path 43232" d="M402.516,192.609a.83.83,0,1,1-.83-.83A.83.83,0,0,1,402.516,192.609Z" transform="translate(-348.331 -165.054)" fill="#aad331"/>
    <path id="Path_43233" data-name="Path 43233" d="M375.244,192.609a.83.83,0,1,1-.83-.83A.83.83,0,0,1,375.244,192.609Z" transform="translate(-324.632 -165.054)" fill="#cce541"/>
    <path id="Path_43234" data-name="Path 43234" d="M271.715,192.609a.83.83,0,1,1-.83-.83A.83.83,0,0,1,271.715,192.609Z" transform="translate(-234.669 -165.054)" fill="#cce541"/>
    <path id="Path_43235" data-name="Path 43235" d="M297.338,192.609a.83.83,0,1,1-.83-.83A.83.83,0,0,1,297.338,192.609Z" transform="translate(-256.934 -165.054)" fill="#aad331"/>
  </g>
</svg>
