<svg xmlns="http://www.w3.org/2000/svg" width="70.984" height="63.051" viewBox="0 0 70.984 63.051">
  <g id="Group_65862" data-name="Group 65862" transform="translate(-239 -514.702)">
    <g id="fried-rice" transform="translate(239 490.383)">
      <path id="Path_43236" data-name="Path 43236" d="M82.344,265.673l.231.194,0-.3v-.022a3.156,3.156,0,0,1,4.089-3.022l.28.087-.111-.272a3.147,3.147,0,0,1,.9-3.615,5.427,5.427,0,0,0-8.691,5.72,5.291,5.291,0,0,1,3.3,1.231Z" transform="translate(-67.883 -200.806)" fill="#fd4755"/>
      <path id="Path_43237" data-name="Path 43237" d="M82.338,265.491a5.428,5.428,0,0,1,3.326-7.854A5.427,5.427,0,0,0,79,264.3,5.4,5.4,0,0,1,82.338,265.491Z" transform="translate(-67.883 -200.806)" fill="#fb2b3a"/>
      <path id="Path_43238" data-name="Path 43238" d="M47.54,315.2a3.154,3.154,0,0,1,2.609-4.926c.028,0,.056,0,.083,0l.058,0,.3.013-.185-.237a3.118,3.118,0,0,1-.66-1.778,5.427,5.427,0,0,0-8.224,6.92Z" transform="translate(-35.051 -243.398)" fill="#fdb441"/>
      <path id="Path_43239" data-name="Path 43239" d="M44.141,315.064a5.423,5.423,0,0,1,4.679-7.45,5.427,5.427,0,0,0-7.383,7.45h2.7Z" transform="translate(-35.05 -243.398)" fill="#fe9901"/>
      <g id="Group_48706" data-name="Group 48706" transform="translate(46.72 45.647)">
        <path id="Path_43240" data-name="Path 43240" d="M336.985,189.069a3.121,3.121,0,0,1,.246,1.178l0,.279.22-.171a3.121,3.121,0,0,1,1.929-.663,3.157,3.157,0,0,1,3.154,3.154,3.126,3.126,0,0,1-.177,1.028,1.587,1.587,0,0,1,.422-.357,1.646,1.646,0,0,1,.834-.214,2.956,2.956,0,0,1,1.441.439l.182.1.025-.208c.25-2.052,1.325-3.542,2.555-3.542.886,0,1.706.763,2.192,2.042l.086.225.152-.187a5.721,5.721,0,0,1,.4-.44,5.313,5.313,0,0,1,2.179-1.338,1.763,1.763,0,0,0-.059-.444,2.513,2.513,0,0,0-1.94-1.612c1.349-1.727,1.689-3.7.71-4.679-.72-.721-1.98-.725-3.284-.14a6.113,6.113,0,0,0,.034-.64c0-2.612-1.649-4.73-3.684-4.73s-3.684,2.117-3.684,4.73a6.125,6.125,0,0,0,.034.631c-1.3-.585-2.563-.58-3.283.14-.98.98-.638,2.957.716,4.686a3.273,3.273,0,0,0-1.4.727Z" transform="translate(-336.985 -178.154)" fill="#68ca44"/>
        <path id="Path_43241" data-name="Path 43241" d="M385.989,224.459a6.314,6.314,0,0,1,.514-1.873v-7.592a1.04,1.04,0,1,0-2.08,0V224A3.036,3.036,0,0,1,385.989,224.459Z" transform="translate(-377.846 -208.991)" fill="#80d261"/>
      </g>
      <g id="Group_48707" data-name="Group 48707" transform="translate(51.926 57.452)">
        <path id="Path_43242" data-name="Path 43242" d="M374.647,267.379l-.111.272.281-.087a3.156,3.156,0,0,1,4.09,3.012,3.121,3.121,0,0,1-.667,1.934l-.185.237.3-.013.058,0c.028,0,.055,0,.083,0a3.154,3.154,0,0,1,2.609,4.926h5.1a2.511,2.511,0,0,0-.3-2.251c2.086-.257,3.655-1.364,3.655-2.692,0-.977-.851-1.835-2.132-2.322a5.884,5.884,0,0,0,.458-.411c1.772-1.772,2.089-4.326.709-5.706s-3.934-1.062-5.706.709a5.856,5.856,0,0,0-.4.451c-.487-1.28-1.345-2.131-2.322-2.131-1.329,0-2.438,1.573-2.693,3.664a2.413,2.413,0,0,0-2.414-.225,1.693,1.693,0,0,0-.27.2A3.154,3.154,0,0,1,374.647,267.379Z" transform="translate(-374.536 -263.299)" fill="#017b4e"/>
        <path id="Path_43243" data-name="Path 43243" d="M412.036,292.767a1,1,0,0,0-1.411,0l-4.971,4.971a3.28,3.28,0,0,1,1.924.9l4.458-4.458a1,1,0,0,0,0-1.41Z" transform="translate(-401.34 -288.43)" fill="#026841"/>
      </g>
      <g id="Group_48709" data-name="Group 48709" transform="translate(34.064 24.319)">
        <path id="Path_43244" data-name="Path 43244" d="M266.133,37.268a1.653,1.653,0,0,1,.255,1.431c-.268.716-1.258,1.127-2.716,1.127a11.737,11.737,0,0,1-3.965-.794,11.112,11.112,0,0,1-3.824-2.291c-.885-.869-1.239-1.7-1-2.346a2,2,0,0,1,1.671-1.044c-5.284-1.073-9.694-.214-10.664,2.378-1.219,3.258,3.463,8.022,10.458,10.638s13.653,2.1,14.872-1.162C272.09,42.884,269.961,39.8,266.133,37.268Z" transform="translate(-245.699 -31.712)" fill="#fff3de"/>
        <path id="Path_43245" data-name="Path 43245" d="M250.882,36.536c.524-1.4,2.053-2.292,4.179-2.649a2.433,2.433,0,0,1,1.144-.589c-5.128-.966-9.367-.091-10.315,2.444-1.219,3.258,3.463,8.022,10.458,10.638a25.343,25.343,0,0,0,7.666,1.649c-.879-.234-1.774-.518-2.675-.855C254.345,44.558,249.663,39.8,250.882,36.536Z" transform="translate(-245.698 -31.723)" fill="#fef0ae"/>
        <g id="Group_48708" data-name="Group 48708" transform="translate(8.061 0)">
          <ellipse id="Ellipse_17966" data-name="Ellipse 17966" cx="2.792" cy="6.279" rx="2.792" ry="6.279" transform="translate(0 5.232) rotate(-69.518)" fill="#fdb441"/>
        </g>
        <path id="Path_43246" data-name="Path 43246" d="M318.685,41.3c-3.248-1.215-5.443-3.371-4.9-4.815.337-.9,1.66-1.312,3.4-1.2-3.175-1.135-6.134-.93-6.664.486-.54,1.444,1.655,3.6,4.9,4.815a12.388,12.388,0,0,0,3.463.784Z" transform="translate(-301.458 -33.138)" fill="#fe9901"/>
      </g>
      <g id="Group_48716" data-name="Group 48716" transform="translate(11.805 53.571)">
        <g id="Group_48710" data-name="Group 48710" transform="translate(0 0)">
          <path id="Path_43247" data-name="Path 43247" d="M132,253.543a3.287,3.287,0,0,0-2.771-5.064c-.05,0-.1.005-.147.007a3.292,3.292,0,0,0-3.573-5.164,3.289,3.289,0,0,0-5.061-3.845,3.288,3.288,0,0,0-5.742-2.152,3.29,3.29,0,0,0-5.87-.391,3.29,3.29,0,0,0-5.87.391,3.288,3.288,0,0,0-5.742,2.152,3.29,3.29,0,0,0-5.061,3.845,3.29,3.29,0,0,0-3.573,5.164c-.049,0-.1-.007-.147-.007a3.287,3.287,0,0,0-2.771,5.064Z" transform="translate(-85.153 -235.31)" fill="#ea9b58"/>
        </g>
        <path id="Path_43248" data-name="Path 43248" d="M122.464,238.783a3.275,3.275,0,0,0-2.014.692,3.288,3.288,0,0,0-5.742-2.152,3.29,3.29,0,0,0-5.87-.391,3.29,3.29,0,0,0-5.87.391,3.288,3.288,0,0,0-5.742,2.152,3.289,3.289,0,0,0-5.061,3.845,3.29,3.29,0,0,0-3.573,5.164c-.049,0-.1-.008-.147-.008a3.289,3.289,0,0,0-2.856,4.925h4.588a14.34,14.34,0,0,1,4.74-8.053,1.037,1.037,0,0,1-.041-.287,3.241,3.241,0,0,1,4.742-2.871,27.417,27.417,0,0,1,12.149-2.731,26.791,26.791,0,0,1,13.822,3.65,3.288,3.288,0,0,0-3.123-4.328Z" transform="translate(-85.151 -235.308)" fill="#d88a55"/>
        <g id="Group_48715" data-name="Group 48715" transform="translate(9.723 4.824)">
          <g id="Group_48711" data-name="Group 48711" transform="translate(0 1.692)">
            <path id="Path_43249" data-name="Path 43249" d="M156.324,286.586a1.04,1.04,0,0,1-1.04-1.04,3.239,3.239,0,0,1,5.792-1.994,1.04,1.04,0,1,1-1.638,1.281,1.16,1.16,0,0,0-2.074.713A1.04,1.04,0,0,1,156.324,286.586Z" transform="translate(-155.284 -282.307)" fill="#c57a44"/>
          </g>
          <g id="Group_48712" data-name="Group 48712" transform="translate(10.659)">
            <path id="Path_43250" data-name="Path 43250" d="M237.139,274.383a1.04,1.04,0,0,1-1.04-1.04,1.16,1.16,0,0,0-2.074-.713,1.04,1.04,0,1,1-1.638-1.281,3.239,3.239,0,0,1,5.792,1.994A1.04,1.04,0,0,1,237.139,274.383Z" transform="translate(-232.165 -270.104)" fill="#c57a44"/>
          </g>
          <g id="Group_48713" data-name="Group 48713" transform="translate(21.688 3.395)">
            <path id="Path_43251" data-name="Path 43251" d="M312.757,298.194a1.041,1.041,0,0,1-.989-1.362,3.239,3.239,0,0,1,6.125-.108,1.04,1.04,0,0,1-1.954.711,1.16,1.16,0,0,0-2.193.04,1.041,1.041,0,0,1-.989.719Z" transform="translate(-311.716 -294.591)" fill="#c57a44"/>
          </g>
          <g id="Group_48714" data-name="Group 48714" transform="translate(6.782 6.773)">
            <path id="Path_43252" data-name="Path 43252" d="M205.241,322.562a1.041,1.041,0,0,1-.989-1.362,3.239,3.239,0,0,1,6.125-.108,1.04,1.04,0,1,1-1.954.711,1.16,1.16,0,0,0-2.193.04A1.041,1.041,0,0,1,205.241,322.562Z" transform="translate(-204.2 -318.959)" fill="#c57a44"/>
          </g>
        </g>
      </g>
      <path id="Path_43253" data-name="Path 43253" d="M56.927,398.807a28.385,28.385,0,0,0,13.32,10.853,3.6,3.6,0,0,0,1.385.279H97.421a3.6,3.6,0,0,0,1.385-.279,28.385,28.385,0,0,0,13.32-10.853Z" transform="translate(-49.035 -322.568)" fill="#d8ecfe"/>
      <path id="Path_43254" data-name="Path 43254" d="M65.524,398.807h-8.6a28.383,28.383,0,0,0,13.32,10.853,3.6,3.6,0,0,0,1.385.279h8.6a3.6,3.6,0,0,1-1.385-.279A28.384,28.384,0,0,1,65.524,398.807Z" transform="translate(-49.035 -322.568)" fill="#c4e2ff"/>
      <g id="Group_48717" data-name="Group 48717" transform="translate(0 71.666)">
        <path id="Path_43255" data-name="Path 43255" d="M68.842,370.535H2.142A2.142,2.142,0,0,1,0,368.393v-.427a2.142,2.142,0,0,1,2.142-2.142h66.7a2.142,2.142,0,0,1,2.142,2.142v.427A2.143,2.143,0,0,1,68.842,370.535Z" transform="translate(0 -365.824)" fill="#eaf6ff"/>
      </g>
      <g id="Group_48718" data-name="Group 48718" transform="translate(0 71.666)">
        <path id="Path_43256" data-name="Path 43256" d="M6.07,368.393v-.427a2.142,2.142,0,0,1,2.142-2.142H2.142A2.142,2.142,0,0,0,0,367.966v.427a2.142,2.142,0,0,0,2.142,2.142h6.07A2.142,2.142,0,0,1,6.07,368.393Z" transform="translate(0 -365.824)" fill="#d8ecfe"/>
      </g>
      <g id="Group_48719" data-name="Group 48719" transform="translate(13.354 42.957)">
        <path id="Path_43257" data-name="Path 43257" d="M97.578,164.467a4.288,4.288,0,0,0,5.394.546.715.715,0,0,0,.111-1.1l-4.949-4.949a.715.715,0,0,0-1.1.111A4.288,4.288,0,0,0,97.578,164.467Z" transform="translate(-96.322 -158.753)" fill="#fe9901"/>
      </g>
      <g id="Group_48720" data-name="Group 48720" transform="translate(22.272 33.662)">
        <path id="Path_43258" data-name="Path 43258" d="M166.694,96.879a.709.709,0,0,0,.523-.789,5.279,5.279,0,0,0-4.376-4.376.709.709,0,0,0-.789.523l-1.379,5.147a.714.714,0,0,0,.875.875Z" transform="translate(-160.647 -91.705)" fill="#fb2b3a"/>
      </g>
      <g id="Group_48721" data-name="Group 48721" transform="translate(8.57 27.377)">
        <path id="Path_43259" data-name="Path 43259" d="M66.989,46.908a.709.709,0,0,0-.789-.523,5.279,5.279,0,0,0-4.376,4.376.709.709,0,0,0,.523.789l5.147,1.379a.714.714,0,0,0,.875-.875Z" transform="translate(-61.815 -46.377)" fill="#68ca44"/>
      </g>
    </g>
  </g>
</svg>
