<svg xmlns="http://www.w3.org/2000/svg" width="63.689" height="73.264" viewBox="0 0 63.689 73.264">
  <g id="oosouji" transform="translate(-33.457)">
    <path id="Path_43410" data-name="Path 43410" d="M384.065,52.146h-4.712V2.356a2.356,2.356,0,1,1,4.712,0Z" transform="translate(-296.401)" fill="#1c8d99"/>
    <path id="Path_43411" data-name="Path 43411" d="M390.743,2.357v49.79h-2.482V2.357A2.354,2.354,0,0,0,387.572.69a2.428,2.428,0,0,0-.425-.337,2.356,2.356,0,0,1,3.6,2Z" transform="translate(-303.079 -0.001)" fill="#0a737e"/>
    <path id="Path_43412" data-name="Path 43412" d="M384.065,10.066h-4.712V2.356a2.356,2.356,0,1,1,4.712,0Z" transform="translate(-296.401 0)" fill="#1c8d99"/>
    <path id="Path_43413" data-name="Path 43413" d="M390.733,2.357v7.71H388.25V2.357a2.355,2.355,0,0,0-1.114-2,2.356,2.356,0,0,1,3.6,2Z" transform="translate(-303.07 -0.001)" fill="#0a737e"/>
    <path id="Path_43414" data-name="Path 43414" d="M335.414,348.437s-8.9-.264-10.087,8.241H345.5C344.314,348.173,335.414,348.437,335.414,348.437Z" transform="translate(-250.105 -298.577)" fill="#b5adb6"/>
    <path id="Path_43415" data-name="Path 43415" d="M367.495,356.674h-3.489c-1.511-7.354-9.785-6.774-9.785-6.774a11.992,11.992,0,0,0-3.227.457,11.846,11.846,0,0,1,6.413-1.925S366.309,348.169,367.495,356.674Z" transform="translate(-272.1 -298.574)" fill="#a79ba7"/>
    <g id="Group_48895" data-name="Group 48895" transform="translate(73.471 58.1)">
      <path id="Path_43416" data-name="Path 43416" d="M336.533,416.578c-.527-5.275-1.516-10.547-1.516-10.547H314.843s-.989,5.271-1.516,10.547l-.231,3.235a1.289,1.289,0,0,0,1.286,1.381h21.1a1.289,1.289,0,0,0,1.286-1.381Z" transform="translate(-313.093 -406.031)" fill="#fddeb0"/>
      <path id="Path_43417" data-name="Path 43417" d="M445.872,421.195h-2.106l-.33-4.616c-.528-5.276-1.516-10.547-1.516-10.547h3.489s.99,5.271,1.517,10.547l.231,3.235A1.289,1.289,0,0,1,445.872,421.195Z" transform="translate(-423.487 -406.032)" fill="#fccd7f"/>
      <g id="Group_48893" data-name="Group 48893" transform="translate(4.672 4.746)">
        <g id="Group_48890" data-name="Group 48890" transform="translate(10.797 0.001)">
          <g id="Group_48889" data-name="Group 48889">
            <path id="Path_43418" data-name="Path 43418" d="M424.73,449.621h-2.209a50.328,50.328,0,0,0-1.289-9.034,1.1,1.1,0,1,1,2.137-.556,51.875,51.875,0,0,1,1.36,9.535C424.73,449.584,424.73,449.6,424.73,449.621Z" transform="translate(-421.196 -439.204)" fill="#fccd7f"/>
          </g>
        </g>
        <g id="Group_48892" data-name="Group 48892">
          <g id="Group_48891" data-name="Group 48891">
            <path id="Path_43419" data-name="Path 43419" d="M349.241,440.583a50.465,50.465,0,0,0-1.289,9.034h-2.209c0-.019,0-.037,0-.056a51.877,51.877,0,0,1,1.36-9.535,1.1,1.1,0,1,1,2.137.556Z" transform="translate(-345.743 -439.2)" fill="#fccd7f"/>
          </g>
        </g>
      </g>
      <g id="Group_48894" data-name="Group 48894" transform="translate(10.734 4.747)">
        <path id="Path_43420" data-name="Path 43420" d="M390.312,440.311v9.313H388.1v-9.312a1.1,1.1,0,0,1,2.207,0Z" transform="translate(-388.104 -439.207)" fill="#fccd7f"/>
      </g>
    </g>
    <path id="Path_43421" data-name="Path 43421" d="M152.842,53.865a9.136,9.136,0,0,1-4.671,5.863.2.2,0,0,0,0,.363,9.136,9.136,0,0,1,4.671,5.863.2.2,0,0,0,.379,0,9.136,9.136,0,0,1,4.671-5.863.2.2,0,0,0,0-.363,9.136,9.136,0,0,1-4.671-5.863A.2.2,0,0,0,152.842,53.865Z" transform="translate(-98.197 -46.035)" fill="#fee97d"/>
    <path id="Path_43422" data-name="Path 43422" d="M40.077,80.626c-.579,1.989-2.264,6.225-6.456,8.1a.273.273,0,0,0,0,.5c4.192,1.88,5.878,6.115,6.456,8.1a.272.272,0,0,0,.523,0c.579-1.989,2.264-6.225,6.456-8.1a.273.273,0,0,0,0-.5c-4.192-1.88-5.878-6.115-6.456-8.1A.272.272,0,0,0,40.077,80.626Z" transform="translate(0 -68.921)" fill="#fee97d"/>
    <path id="Path_43423" data-name="Path 43423" d="M179,85.846a9.141,9.141,0,0,0-4.672,5.864.2.2,0,0,1-.378,0,11.184,11.184,0,0,0-1.264-2.819,9.166,9.166,0,0,1,3.942-5.111,7.42,7.42,0,0,0,2.372,1.7A.2.2,0,0,1,179,85.846Z" transform="translate(-119.311 -71.791)" fill="#fedf30"/>
    <path id="Path_43424" data-name="Path 43424" d="M78.759,129.63c-4.192,1.879-5.878,6.116-6.456,8.1a.272.272,0,0,1-.523,0,15.7,15.7,0,0,0-1.327-3.19,12.261,12.261,0,0,1,5.861-6.972,10.1,10.1,0,0,0,2.445,1.555A.274.274,0,0,1,78.759,129.63Z" transform="translate(-31.702 -109.318)" fill="#fedf30"/>
    <path id="Path_43425" data-name="Path 43425" d="M155.736,185.123a3.287,3.287,0,1,0-3.857-5.317,4.331,4.331,0,0,0-6.761-1.838c0-.055,0-.109,0-.164a5.964,5.964,0,1,0-11.929,0c0,.055,0,.109,0,.164a4.331,4.331,0,0,0-7.044,3.377,4.463,4.463,0,0,0,2.078,3.779h27.5Z" transform="translate(-79.432 -147.25)" fill="#b3dafe"/>
    <path id="Path_43426" data-name="Path 43426" d="M201.565,182.047a3.287,3.287,0,0,1-1.443,3.074h-.492c0-.029,0-.058,0-.087a3.288,3.288,0,0,0-4.324-3.12,1.4,1.4,0,0,1-1.562-.5,3.405,3.405,0,0,0-3.058-1.562,4.322,4.322,0,0,0-1.265.188,1.408,1.408,0,0,1-1.786-.956,5.994,5.994,0,0,0-.6-1.482,6.2,6.2,0,0,0-5.448-3.117,6.669,6.669,0,0,0-3.641,1.241,5.965,5.965,0,0,1,11.557,2.077c0,.055,0,.109,0,.164a4.33,4.33,0,0,1,6.762,1.838,3.285,3.285,0,0,1,5.3,2.243Z" transform="translate(-123.817 -147.247)" fill="#8ac9fe"/>
    <path id="Path_43427" data-name="Path 43427" d="M125.547,295.6l1.425,26.709a4.5,4.5,0,0,0,4.49,4.256h19.388a4.5,4.5,0,0,0,4.49-4.256l1.425-26.709Z" transform="translate(-78.913 -253.297)" fill="#44b4bf"/>
    <path id="Path_43428" data-name="Path 43428" d="M290.1,295.6l-1.425,26.708a4.5,4.5,0,0,1-4.49,4.257h-3.037a4.5,4.5,0,0,0,4.49-4.257l1.425-26.708Z" transform="translate(-212.247 -253.301)" fill="#44b4bf"/>
    <path id="Path_43429" data-name="Path 43429" d="M147.672,258.614H115.508a1.124,1.124,0,0,0-1.124,1.124v3.044a1.124,1.124,0,0,0,1.124,1.124H124.7a2.454,2.454,0,0,1,2.28,1.529,4.968,4.968,0,0,0,9.22,0,2.454,2.454,0,0,1,2.28-1.529h9.192a1.124,1.124,0,0,0,1.124-1.124v-3.044A1.124,1.124,0,0,0,147.672,258.614Z" transform="translate(-69.347 -221.608)" fill="#44b4bf"/>
    <path id="Path_43430" data-name="Path 43430" d="M329.6,259.74v3.045a1.125,1.125,0,0,1-1.124,1.124h-3.1a1.124,1.124,0,0,0,1.123-1.124V259.74a1.123,1.123,0,0,0-1.123-1.123h3.1A1.124,1.124,0,0,1,329.6,259.74Z" transform="translate(-250.152 -221.611)" fill="#44b4bf"/>
    <path id="Path_43431" data-name="Path 43431" d="M100.719,295.816a2.081,2.081,0,0,0,2.943,0l16.724-16.724a2.081,2.081,0,1,0-2.942-2.942l-16.724,16.724A2.081,2.081,0,0,0,100.719,295.816Z" transform="translate(-57.115 -236.113)" fill="#b5adb6"/>
    <path id="Path_43432" data-name="Path 43432" d="M100.719,295.816a2.081,2.081,0,0,0,2.943,0l16.724-16.724a2.081,2.081,0,1,0-2.942-2.942l-16.724,16.724A2.081,2.081,0,0,0,100.719,295.816Z" transform="translate(-57.115 -236.113)" fill="#b5adb6"/>
    <path id="Path_43433" data-name="Path 43433" d="M120.861,279.576,104.137,296.3a2.081,2.081,0,0,1-2.942,0,2.056,2.056,0,0,1-.531-.9,2.081,2.081,0,0,0,2.043-.529l16.724-16.724a2.082,2.082,0,0,0,.529-2.042,2.055,2.055,0,0,1,.9.529A2.081,2.081,0,0,1,120.861,279.576Z" transform="translate(-57.59 -236.596)" fill="#a79ba7"/>
  </g>
</svg>
