<svg xmlns="http://www.w3.org/2000/svg" xmlns:xlink="http://www.w3.org/1999/xlink" width="63.051" height="63.051" viewBox="0 0 63.051 63.051">
  <defs>
    <linearGradient id="linear-gradient" x1="0.5" y1="0.849" x2="0.5" y2="0.349" gradientUnits="objectBoundingBox">
      <stop offset="0" stop-color="#f6cfbe"/>
      <stop offset="1" stop-color="#edad99"/>
    </linearGradient>
    <linearGradient id="linear-gradient-2" x1="0.416" y1="1.915" x2="0.52" y2="0.782" gradientUnits="objectBoundingBox">
      <stop offset="0" stop-color="#eff0f0"/>
      <stop offset="1" stop-color="#e4e5e6"/>
    </linearGradient>
    <linearGradient id="linear-gradient-3" x1="0.409" y1="1.489" x2="0.336" y2="2.182" xlink:href="#linear-gradient-2"/>
    <linearGradient id="linear-gradient-4" x1="40.204" y1="1.915" x2="40.308" y2="0.782" xlink:href="#linear-gradient-2"/>
    <linearGradient id="linear-gradient-5" x1="33.409" y1="1.489" x2="33.336" y2="2.182" xlink:href="#linear-gradient-2"/>
    <linearGradient id="linear-gradient-6" y1="-1.396" y2="1.646" xlink:href="#linear-gradient"/>
    <linearGradient id="linear-gradient-8" x1="0.584" y1="-0.161" x2="0.631" y2="-0.42" xlink:href="#linear-gradient"/>
    <linearGradient id="linear-gradient-9" x1="0.5" y1="-0.377" x2="0.5" y2="1.254" gradientUnits="objectBoundingBox">
      <stop offset="0" stop-color="#957e7f"/>
      <stop offset="1" stop-color="#373638"/>
    </linearGradient>
    <linearGradient id="linear-gradient-10" x1="0.995" y1="1.775" x2="0.901" y2="1.561" xlink:href="#linear-gradient-2"/>
    <linearGradient id="linear-gradient-11" x1="66.471" y1="1.775" x2="66.377" y2="1.561" xlink:href="#linear-gradient-2"/>
    <linearGradient id="linear-gradient-12" x1="0.567" y1="1.317" x2="0.557" y2="1.212" gradientUnits="objectBoundingBox">
      <stop offset="0" stop-color="#d0d3d3"/>
      <stop offset="1" stop-color="#aaaeb1"/>
    </linearGradient>
    <linearGradient id="linear-gradient-13" x1="0.347" y1="-1.483" x2="0.358" y2="-1.301" gradientUnits="objectBoundingBox">
      <stop offset="0" stop-color="#58595b"/>
      <stop offset="1" stop-color="#414042"/>
    </linearGradient>
    <linearGradient id="linear-gradient-14" x1="0.534" y1="1.334" x2="0.528" y2="1.224" xlink:href="#linear-gradient-13"/>
    <linearGradient id="linear-gradient-15" x1="-2.799" y1="1.334" x2="-2.805" y2="1.224" xlink:href="#linear-gradient-13"/>
    <linearGradient id="linear-gradient-16" x1="0.393" y1="-0.219" x2="0.408" y2="-0.149" xlink:href="#linear-gradient-13"/>
    <linearGradient id="linear-gradient-17" x1="0.387" y1="-0.076" x2="0.408" y2="0.037" xlink:href="#linear-gradient-13"/>
    <linearGradient id="linear-gradient-18" x1="1.517" y1="0.861" x2="1.759" y2="0.947" gradientUnits="objectBoundingBox">
      <stop offset="0" stop-color="#6c6f73"/>
      <stop offset="1" stop-color="#56585b"/>
    </linearGradient>
    <linearGradient id="linear-gradient-19" x1="-1.455" y1="0.24" x2="-0.672" y2="0.344" xlink:href="#linear-gradient-13"/>
    <clipPath id="clip-path">
      <circle id="Ellipse_18001" data-name="Ellipse 18001" cx="2.5" cy="2.5" r="2.5" transform="translate(-0.045 -0.273)"/>
    </clipPath>
    <linearGradient id="linear-gradient-20" x1="-1.455" y1="0.24" x2="-0.672" y2="0.344" xlink:href="#linear-gradient-18"/>
    <linearGradient id="linear-gradient-21" x1="-1.129" y1="0.283" x2="-0.476" y2="0.37" xlink:href="#linear-gradient-12"/>
  </defs>
  <g id="doctor_5_" data-name="doctor (5)" transform="translate(-2 -2)">
    <g id="Group_48912" data-name="Group 48912" transform="translate(2 2)">
      <g id="Group_48911" data-name="Group 48911">
        <g id="Group_48909" data-name="Group 48909">
          <path id="Path_43434" data-name="Path 43434" d="M52,76H64.2V86.678H52Z" transform="translate(-26.576 -38.373)" fill="url(#linear-gradient)"/>
          <g id="Group_48900" data-name="Group 48900" transform="translate(0 43.221)">
            <path id="Path_43435" data-name="Path 43435" d="M52,88a8.444,8.444,0,0,0,6.1,2.542A8.117,8.117,0,0,0,64.2,88v19.323H52Z" transform="translate(-26.576 -87.491)" fill="#1c8d99"/>
            <path id="Path_43436" data-name="Path 43436" d="M50.022,88a8.444,8.444,0,0,0,6.1,2.542A8.117,8.117,0,0,0,62.225,88c.563.125,1.261.293,2.047.5-1.183,2.375-4.38,4.081-8.148,4.081s-6.966-1.705-8.148-4.081C48.761,88.292,49.458,88.124,50.022,88Z" transform="translate(-24.598 -87.491)" fill="#0a737e"/>
            <g id="Group_48897" data-name="Group 48897">
              <path id="Path_43437" data-name="Path 43437" d="M18.78,98.016,9.627,97S4.542,102.085,2,111.746H18.78Z" transform="translate(-2 -91.915)" fill="url(#linear-gradient-2)"/>
              <g id="Group_48896" data-name="Group 48896" transform="translate(7.627)">
                <path id="Path_43438" data-name="Path 43438" d="M32.763,87c-3.625.8-12.757,2.881-15.763,5.085l5.085,14.746h16.78Z" transform="translate(-17 -87)" fill="url(#linear-gradient-3)"/>
              </g>
            </g>
            <g id="Group_48899" data-name="Group 48899" transform="translate(33.56)">
              <path id="Path_43439" data-name="Path 43439" d="M93,98.016,102.153,97s5.085,5.085,7.627,14.746H93Z" transform="translate(-80.288 -91.915)" fill="url(#linear-gradient-4)"/>
              <g id="Group_48898" data-name="Group 48898">
                <path id="Path_43440" data-name="Path 43440" d="M74.1,87c3.625.8,12.757,2.881,15.763,5.085L84.78,106.831H68Z" transform="translate(-68 -87)" fill="url(#linear-gradient-5)"/>
              </g>
            </g>
          </g>
          <g id="Group_48901" data-name="Group 48901" transform="translate(12.712 22.373)">
            <path id="Path_43441" data-name="Path 43441" d="M93.119,49.487c0,2.246-1.594,4.649-3.559,4.649S86,51.733,86,49.487a3.56,3.56,0,0,1,7.119,0Z" transform="translate(-56 -46)" fill="url(#linear-gradient-6)"/>
            <path id="Path_43442" data-name="Path 43442" d="M34.119,49.487c0,2.246-1.594,4.649-3.559,4.649S27,51.733,27,49.487A3.334,3.334,0,0,1,30.559,46,3.334,3.334,0,0,1,34.119,49.487Z" transform="translate(-27 -46)" fill="url(#linear-gradient-6)"/>
          </g>
          <path id="Path_43443" data-name="Path 43443" d="M62.458,28H37.034A2.712,2.712,0,0,0,35,30.542V40.716a14.754,14.754,0,1,0,29.492,0V30.542A2.7,2.7,0,0,0,62.458,28Z" transform="translate(-18.22 -14.78)" fill="url(#linear-gradient-8)"/>
          <path id="Path_43444" data-name="Path 43444" d="M46.8,2c7.975,0,16.78,6.2,16.78,15.763a25.469,25.469,0,0,1-2.034,10.17c0-3.051-1.525-10.17-1.525-10.17-8.644,2.034-25.932-2.034-25.932-2.034s-2.034,3.051-2.034,12.2A15.664,15.664,0,0,1,29,18.271c0-7.609,3.559-9.153,3.559-9.153S33.576,2,46.8,2Z" transform="translate(-15.271 -2)" fill="url(#linear-gradient-9)"/>
        </g>
        <g id="Group_48910" data-name="Group 48910" transform="translate(18.814 41.695)">
          <path id="Path_43449" data-name="Path 43449" d="M45.61,84l4.068,21.356-8.136-7.627,1.017-4.068L39,93.152l4.068-7.627A3.362,3.362,0,0,1,45.61,84Z" transform="translate(-39 -84)" fill="url(#linear-gradient-10)"/>
          <path id="Path_43450" data-name="Path 43450" d="M72.068,84,68,105.356l8.136-7.627-1.017-4.068,3.559-.509L74.61,85.525A3.362,3.362,0,0,0,72.068,84Z" transform="translate(-53.254 -84)" fill="url(#linear-gradient-11)"/>
        </g>
      </g>
    </g>
    <g id="Group_48919" data-name="Group 48919" transform="translate(15.729 40.713)">
      <g id="Group_48913" data-name="Group 48913" transform="translate(0 8.066)">
        <path id="Path_43451" data-name="Path 43451" d="M38.153,106.712H35.61a.508.508,0,1,1,0-1.017h2.542a1.018,1.018,0,0,0,1.017-1.017V99.593a4.576,4.576,0,1,0-9.153,0v5.085a1.018,1.018,0,0,0,1.017,1.017h2.034a.508.508,0,0,1,0,1.017H31.034A2.036,2.036,0,0,1,29,104.678V99.593a5.593,5.593,0,1,1,11.187,0v5.085A2.036,2.036,0,0,1,38.153,106.712Z" transform="translate(-29 -94)" fill="url(#linear-gradient-12)"/>
        <path id="Path_43452" data-name="Path 43452" d="M34.593,94A5.6,5.6,0,0,0,29,99.593h1.017a4.576,4.576,0,1,1,9.153,0h1.017A5.6,5.6,0,0,0,34.593,94Z" transform="translate(-29 -94)" fill="url(#linear-gradient-13)"/>
        <path id="Path_43453" data-name="Path 43453" d="M36.017,117H35v1.017h1.017a.508.508,0,1,0,0-1.017Z" transform="translate(-31.949 -105.305)" fill="url(#linear-gradient-14)"/>
        <path id="Path_43454" data-name="Path 43454" d="M41.508,117h1.017v1.017H41.508a.508.508,0,1,1,0-1.017Z" transform="translate(-34.898 -105.305)" fill="url(#linear-gradient-15)"/>
      </g>
      <path id="Path_43455" data-name="Path 43455" d="M78.412,78.136a14.567,14.567,0,0,1-1.625.948H77.4A7.127,7.127,0,0,1,84.522,86.2v6.1a.508.508,0,1,0,1.017,0V86.2A8.143,8.143,0,0,0,78.412,78.136Z" transform="translate(-52.488 -78.136)" fill="url(#linear-gradient-16)"/>
      <path id="Path_43456" data-name="Path 43456" d="M43.617,78.179A5.6,5.6,0,0,0,39,83.681v3.051a.508.508,0,1,0,1.017,0V83.681A4.582,4.582,0,0,1,44.593,79.1a.5.5,0,0,0,.347-.14A14.579,14.579,0,0,1,43.617,78.179Z" transform="translate(-33.915 -78.157)" fill="url(#linear-gradient-17)"/>
      <g id="Group_48918" data-name="Group 48918" transform="translate(29.492 13.151)">
        <circle id="Ellipse_17999" data-name="Ellipse 17999" cx="2.5" cy="2.5" r="2.5" transform="translate(0.779 0.432)" fill="url(#linear-gradient-18)"/>
        <g id="Group_48917" data-name="Group 48917" transform="translate(0)">
          <g id="Group_48916" data-name="Group 48916">
            <g id="Group_48915" data-name="Group 48915" transform="translate(0.825 0.705)">
              <circle id="Ellipse_18000" data-name="Ellipse 18000" cx="2.5" cy="2.5" r="2.5" transform="translate(-0.045 -0.273)" fill="url(#linear-gradient-19)"/>
              <g id="Group_48914" data-name="Group 48914" transform="translate(0 0)" clip-path="url(#clip-path)">
                <path id="Path_43457" data-name="Path 43457" d="M88,105h5.085v5.085H88Z" transform="translate(-88.316 -105.197)" fill="url(#linear-gradient-20)"/>
              </g>
            </g>
            <path id="Path_43458" data-name="Path 43458" d="M90.051,110.1a3.051,3.051,0,1,1,3.051-3.051A3.054,3.054,0,0,1,90.051,110.1Zm0-5.085a2.034,2.034,0,1,0,2.034,2.034A2.036,2.036,0,0,0,90.051,105.017Z" transform="translate(-87 -104)" fill="url(#linear-gradient-21)"/>
          </g>
        </g>
      </g>
    </g>
  </g>
</svg>
