<svg xmlns="http://www.w3.org/2000/svg" width="283.13" height="72.811" viewBox="0 0 283.13 72.811">
  <g id="Group_66703" data-name="Group 66703" transform="translate(-592.94 -4008.776)">
    <g id="Group_66702" data-name="Group 66702" transform="translate(51 43)">
      <path id="Path_136795" data-name="Path 136795" d="M25,0A25,25,0,1,1,0,25,25,25,0,0,1,25,0Z" transform="translate(702.167 3977.182)" fill="#44b4bf"/>
      <g id="Group_66701" data-name="Group 66701" transform="translate(489 3787)">
        <g id="Group_26964" data-name="Group 26964" transform="translate(16.167 -22)">
          <g id="Group_26961" data-name="Group 26961" transform="translate(37.833 201.837)">
            <g id="Group_26956" data-name="Group 26956" transform="translate(154.005 5.484)">
              <g id="Group_26951" data-name="Group 26951" transform="translate(0 0)">
                <ellipse id="Ellipse_17886" data-name="Ellipse 17886" cx="24.993" cy="24.993" rx="24.993" ry="24.993" transform="translate(0 48.648) rotate(-76.72)" fill="none" stroke="#fff" stroke-linecap="round" stroke-linejoin="round" stroke-width="1.5"/>
                <path id="Path_14453" data-name="Path 14453" d="M362.16,172.409a2.209,2.209,0,1,1,2.209,2.209A2.209,2.209,0,0,1,362.16,172.409Z" transform="translate(-345.563 -148.156)" fill="#fff"/>
                <path id="Path_14454" data-name="Path 14454" d="M415.1,172.409a2.209,2.209,0,1,1,2.209,2.209A2.209,2.209,0,0,1,415.1,172.409Z" transform="translate(-375.974 -148.156)" fill="#fff"/>
                <path id="Path_14455" data-name="Path 14455" d="M389.118,198.89a14.077,14.077,0,0,1-26.878,0" transform="translate(-345.609 -164.637)" fill="none" stroke="#fff" stroke-linecap="round" stroke-linejoin="round" stroke-width="1.5"/>
                <line id="Line_387" data-name="Line 387" x1="2.562" y2="1.226" transform="translate(15.138 33.64)" fill="none" stroke="#fff" stroke-linecap="round" stroke-linejoin="round" stroke-width="1.5"/>
                <line id="Line_388" data-name="Line 388" x2="2.562" y2="1.226" transform="translate(42.441 33.64)" fill="none" stroke="#fff" stroke-linecap="round" stroke-linejoin="round" stroke-width="1.5"/>
              </g>
            </g>
            <g id="Group_26957" data-name="Group 26957" transform="translate(76.414 0)">
              <g id="Group_26950" data-name="Group 26950" transform="translate(0 0)">
                <circle id="Ellipse_17887" data-name="Ellipse 17887" cx="24.993" cy="24.993" r="24.993" transform="translate(0 35.345) rotate(-45)" fill="none" stroke="#272525" stroke-linecap="round" stroke-linejoin="round" stroke-width="1.5"/>
                <path id="Path_14456" data-name="Path 14456" d="M156.25,172.409a2.2,2.2,0,1,1,.644,1.561A2.209,2.209,0,0,1,156.25,172.409Z" transform="translate(-134.375 -142.881)" fill="#272525"/>
                <path id="Path_14457" data-name="Path 14457" d="M209.19,172.409a2.2,2.2,0,1,1,.644,1.561A2.209,2.209,0,0,1,209.19,172.409Z" transform="translate(-164.786 -142.881)" fill="#272525"/>
                <path id="Path_14458" data-name="Path 14458" d="M159.46,202.362a13.192,13.192,0,0,1,24.21,0" transform="translate(-136.218 -156.791)" fill="none" stroke="#272525" stroke-linecap="round" stroke-linejoin="round" stroke-width="1.5"/>
              </g>
            </g>
            <g id="Group_26958" data-name="Group 26958" transform="translate(0 0)">
              <g id="Group_26949" data-name="Group 26949" transform="translate(0 0)">
                <circle id="Ellipse_17897" data-name="Ellipse 17897" cx="24.993" cy="24.993" r="24.993" transform="translate(0 35.345) rotate(-45)" fill="none" stroke="#272525" stroke-linecap="round" stroke-linejoin="round" stroke-width="1.5"/>
                <path id="Path_14474" data-name="Path 14474" d="M156.48,377.769a2.209,2.209,0,1,1,2.2,2.209A2.209,2.209,0,0,1,156.48,377.769Z" transform="translate(-134.607 -348.241)" fill="#272525"/>
                <path id="Path_14475" data-name="Path 14475" d="M209.41,377.769a2.209,2.209,0,1,1,2.209,2.209A2.209,2.209,0,0,1,209.41,377.769Z" transform="translate(-165.012 -348.241)" fill="#272525"/>
                <path id="Path_14476" data-name="Path 14476" d="M154.218,400.667l-3.328-6.247-3.332,6.247a4.609,4.609,0,0,0-.809,2.451,4.141,4.141,0,0,0,8.277,0A4.52,4.52,0,0,0,154.218,400.667Z" transform="translate(-129.017 -359.075)" fill="none" stroke="#272525" stroke-linecap="round" stroke-linejoin="round" stroke-width="1.5"/>
                <path id="Path_14477" data-name="Path 14477" d="M171.56,401.449a13.192,13.192,0,0,1,14.924.511" transform="translate(-143.269 -361.925)" fill="none" stroke="#272525" stroke-linecap="round" stroke-linejoin="round" stroke-width="1.5"/>
              </g>
            </g>
            <g id="Group_26955" data-name="Group 26955" transform="translate(221.036 5.484)">
              <g id="Group_26954" data-name="Group 26954" transform="translate(0 0)">
                <ellipse id="Ellipse_17898" data-name="Ellipse 17898" cx="24.993" cy="24.993" rx="24.993" ry="24.993" transform="translate(0 48.648) rotate(-76.72)" fill="none" stroke="#272525" stroke-linecap="round" stroke-linejoin="round" stroke-width="1.5"/>
                <path id="Path_14478" data-name="Path 14478" d="M156.48,588.149a2.2,2.2,0,1,1,.644,1.561,2.209,2.209,0,0,1-.644-1.561Z" transform="translate(-139.889 -562.308)" fill="#272525"/>
                <path id="Path_14479" data-name="Path 14479" d="M209.41,588.149a2.209,2.209,0,1,1,2.209,2.209A2.209,2.209,0,0,1,209.41,588.149Z" transform="translate(-170.294 -562.308)" fill="#272525"/>
                <path id="Path_14480" data-name="Path 14480" d="M159.69,618.1a13.192,13.192,0,0,1,24.21,0" transform="translate(-141.732 -576.218)" fill="none" stroke="#272525" stroke-linecap="round" stroke-linejoin="round" stroke-width="1.5"/>
                <line id="Line_397" data-name="Line 397" x2="5.779" y2="3.502" transform="translate(16.932 18.27)" fill="none" stroke="#272525" stroke-linecap="round" stroke-linejoin="round" stroke-width="1.5"/>
                <line id="Line_398" data-name="Line 398" x1="5.779" y2="3.502" transform="translate(37.414 18.27)" fill="none" stroke="#272525" stroke-linecap="round" stroke-linejoin="round" stroke-width="1.5"/>
              </g>
            </g>
          </g>
        </g>
      </g>
    </g>
  </g>
</svg>
