<svg xmlns="http://www.w3.org/2000/svg" width="37.964" height="42.059" viewBox="0 0 37.964 42.059">
  <g id="filter_3_" data-name="filter (3)" transform="translate(-24.927)">
    <path id="Path_7375" data-name="Path 7375" d="M80.954,107.955c.661.956.463.159.463,19.222a2.076,2.076,0,0,0,3.318,1.662c5.861-4.419,7.033-4.8,7.033-6.869,0-13.891-.162-13.11.463-14.015L101.75,95H71.436Z" transform="translate(-42.688 -87.195)" fill="#9b9b9b"/>
    <path id="Path_7376" data-name="Path 7376" d="M62.657,1.056A1.959,1.959,0,0,0,60.915,0H26.894a1.965,1.965,0,0,0-1.609,3.089c.007.012-.1-.139,1.653,2.251H60.871C62.368,3.3,63.368,2.423,62.657,1.056Z" fill="#9b9b9b"/>
  </g>
</svg>
