<svg xmlns="http://www.w3.org/2000/svg" width="66.33" height="67.288" viewBox="0 0 66.33 67.288">
  <g id="Group_48859" data-name="Group 48859" transform="translate(-241 -669.284)">
    <g id="Group_48767" data-name="Group 48767" transform="translate(165.492)">
      <g id="Group_48862" data-name="Group 48862">
        <g id="fruits" transform="translate(75.508 669.286)">
          <path id="Path_43321" data-name="Path 43321" d="M147.322,17.628A5.2,5.2,0,0,0,145.6,15.1a1.98,1.98,0,0,1-.739-1.553V8.622a1,1,0,0,0-1-1h-2a1,1,0,0,0-1,1V12.8a1.988,1.988,0,0,1-1.061,1.765,5.191,5.191,0,0,0-2.29,2.4c-2.237,4.686-6.208,14.389-14.364,22.529C115,47.648,105.3,51.619,100.612,53.857a5.3,5.3,0,0,0,.664,9.815,27.3,27.3,0,0,0,8.753,1.2c9.072-.164,18.613-5.252,25.929-12.567s12.4-16.857,12.567-25.929a27.293,27.293,0,0,0-1.2-8.753Zm0,0" transform="translate(-84.779 -6.621)" fill="#ffcf5d"/>
          <path id="Path_43322" data-name="Path 43322" d="M198.79,18.234a1.213,1.213,0,0,1,.395.609,23.187,23.187,0,0,1,1.016,7.466c-.136,7.509-4.4,16.17-11.395,23.17s-15.661,11.259-23.171,11.395a4,4,0,0,0-3.926,3.811,29.686,29.686,0,0,0,4,.193c9.072-.164,18.614-5.252,25.929-12.567s12.4-16.857,12.567-25.929a27.3,27.3,0,0,0-1.2-8.753,5.2,5.2,0,0,0-1.722-2.53,1.98,1.98,0,0,1-.739-1.553V8.622a1,1,0,0,0-1-1h-2a1,1,0,0,0-1,1v4.922a5.949,5.949,0,0,0,2.255,4.69Zm0,0" transform="translate(-140.458 -6.621)" fill="#ffb545"/>
          <path id="Path_43323" data-name="Path 43323" d="M56.2,215.569l-3.367-2.132a1.079,1.079,0,0,0-1.618,1.214l.988,3.209a11.2,11.2,0,0,0,4.329,5.907l3.308,2.177C59.84,222.045,59.689,217.779,56.2,215.569Zm0,0" transform="translate(-44.44 -185.238)" fill="#28d05b"/>
          <path id="Path_43324" data-name="Path 43324" d="M120.787,221.773l-.534-.534a1,1,0,0,0-1.024-.242c-5.213,1.738-9.063,5.7-11.135,11.454l1.884.678c1.8-5.013,4.934-8.384,9.307-10.028l.087.087a1,1,0,0,0,1.416-1.416Zm0,0" transform="translate(-93.888 -191.91)" fill="#b66652"/>
          <path id="Path_43325" data-name="Path 43325" d="M20.937,298.636a10.528,10.528,0,0,0-5.537,1.392,10.523,10.523,0,0,0-5.537-1.392,9.983,9.983,0,0,0-8.534,5.152c-1.563,2.848-1.762,6.323-.516,10.156,1.906,5.847,6.962,11.083,11.766,11.358a7.981,7.981,0,0,0,1.382-.025,13.823,13.823,0,0,1,2.877,0,7.981,7.981,0,0,0,1.382.025c4.8-.275,9.861-5.511,11.767-11.358,1.246-3.834,1.046-7.308-.516-10.156a9.983,9.983,0,0,0-8.534-5.152Zm0,0" transform="translate(0 -259.384)" fill="#ff5368"/>
          <path id="Path_43326" data-name="Path 43326" d="M71.993,314.733a9.952,9.952,0,0,0-3.239-3.5q.218.33.41.673c1.562,2.848,1.762,6.323.516,10.157a19.031,19.031,0,0,1-7.071,9.634,10.4,10.4,0,0,1-5.772,1.723H48.957a10.667,10.667,0,0,0,6.145,2.83,7.926,7.926,0,0,0,1.382-.025,13.692,13.692,0,0,1,2.878,0,8.019,8.019,0,0,0,1.381.025c4.8-.274,9.861-5.511,11.766-11.358,1.246-3.834,1.046-7.308-.516-10.157Zm0,0" transform="translate(-42.522 -270.33)" fill="#d9435b"/>
          <path id="Path_43327" data-name="Path 43327" d="M318.848,293a4,4,0,0,0-7.786,0,13.346,13.346,0,1,0,7.786,0Zm0,0" transform="translate(-261.971 -251.831)" fill="#ff983b"/>
          <path id="Path_43328" data-name="Path 43328" d="M340.059,328.684A13.346,13.346,0,0,1,321.4,347.345a13.346,13.346,0,1,0,18.661-18.661Zm0,0" transform="translate(-279.16 -285.489)" fill="#ff7e40"/>
          <path id="Path_43329" data-name="Path 43329" d="M395.543,240.717v9.306a1.029,1.029,0,0,0,.97,1.042,1,1,0,0,0,1.032-1V239.637A1.292,1.292,0,0,0,395.543,240.717Zm0,0" transform="translate(-343.56 -207.959)" fill="#b66652"/>
          <path id="Path_43330" data-name="Path 43330" d="M404.169,249.613l-.988-3.209a11.208,11.208,0,0,0-4.329-5.907l-1.306-.859a1.292,1.292,0,0,0-2,1.079v1.422a7.6,7.6,0,0,0,3.641,6.556l3.367,2.133A1.079,1.079,0,0,0,404.169,249.613Zm0,0" transform="translate(-343.56 -207.96)" fill="#28d05b"/>
          <path id="Path_43331" data-name="Path 43331" d="M350.509,353.388a1,1,0,1,1-1-1A1,1,0,0,1,350.509,353.388Zm0,0" transform="translate(-302.706 -306.077)" fill="#ff7e40"/>
          <path id="Path_43332" data-name="Path 43332" d="M370.822,381.825a1,1,0,1,1-1-1A1,1,0,0,1,370.822,381.825Zm0,0" transform="translate(-320.349 -330.777)" fill="#ff7e40"/>
          <path id="Path_43333" data-name="Path 43333" d="M330.2,404.169a1,1,0,1,1-1-1A1,1,0,0,1,330.2,404.169Zm0,0" transform="translate(-285.063 -350.184)" fill="#ff7e40"/>
          <path id="Path_43334" data-name="Path 43334" d="M256.01,3.692A1,1,0,0,0,254.7,3.15l-.6.248.459-.459a1,1,0,0,0-1.415-1.415l-.459.459.248-.6a1,1,0,1,0-1.85-.766l-.544,1.312,3.614,3.614L255.469,5a1,1,0,0,0,.542-1.308Zm0,0" transform="translate(-217.616 0)" fill="#28d05b"/>
          <path id="Path_43335" data-name="Path 43335" d="M192.657,13.242c2.085-2.085,5.182-1.8,7.267.283s2.368,5.182.283,7.267-7.635,4.255-9.72,2.17.086-7.635,2.17-9.72Zm0,0" transform="translate(-164.717 -10.262)" fill="#ff5368"/>
          <path id="Path_43336" data-name="Path 43336" d="M200.07,17.037a6.093,6.093,0,0,0-1.649-1.181,4.784,4.784,0,0,1-.9,5.618,11.61,11.61,0,0,1-7.714,2.994,3.147,3.147,0,0,0,.824,2.006c2.085,2.085,7.635-.086,9.72-2.17s1.8-5.182-.283-7.267Zm0,0" transform="translate(-164.863 -13.773)" fill="#d9435b"/>
          <g id="Group_48861" data-name="Group 48861" transform="translate(27.122 3.684)">
            <path id="Path_43337" data-name="Path 43337" d="M229.916,50.587a1,1,0,1,1-1-1A1,1,0,0,1,229.916,50.587Zm0,0" transform="translate(-225.083 -46.755)" fill="#ffcf5d"/>
            <path id="Path_43338" data-name="Path 43338" d="M208.373,72.129a1,1,0,1,1-1-1A1,1,0,0,1,208.373,72.129Zm0,0" transform="translate(-206.372 -65.467)" fill="#ffcf5d"/>
            <path id="Path_43339" data-name="Path 43339" d="M208.373,50.587a1,1,0,1,1-1-1A1,1,0,0,1,208.373,50.587Zm0,0" transform="translate(-206.372 -46.755)" fill="#ffcf5d"/>
            <path id="Path_43340" data-name="Path 43340" d="M229.916,72.129a1,1,0,1,1-1-1A1,1,0,0,1,229.916,72.129Zm0,0" transform="translate(-225.083 -65.467)" fill="#ffcf5d"/>
            <path id="Path_43341" data-name="Path 43341" d="M251.456,50.587a1,1,0,1,1-1-1A1,1,0,0,1,251.456,50.587Zm0,0" transform="translate(-243.792 -46.755)" fill="#ffcf5d"/>
            <path id="Path_43342" data-name="Path 43342" d="M229.916,29.044a1,1,0,1,1-1-1A1,1,0,0,1,229.916,29.044Zm0,0" transform="translate(-225.083 -28.043)" fill="#ffcf5d"/>
          </g>
          <path id="Path_43343" data-name="Path 43343" d="M99.158,112.041a6.673,6.673,0,1,1-6.673-6.673,6.673,6.673,0,0,1,6.673,6.673Zm0,0" transform="translate(-74.534 -91.521)" fill="#5c87bd"/>
          <path id="Path_43344" data-name="Path 43344" d="M100.572,111.129a6.673,6.673,0,0,1-9,9,6.673,6.673,0,1,0,9-9Zm0,0" transform="translate(-79.535 -96.525)" fill="#456ea2"/>
          <path id="Path_43345" data-name="Path 43345" d="M122.471,125.143l.293-.293a1,1,0,0,0-1.416-1.415l-.293.293-.293-.293a1,1,0,1,0-1.415,1.415l.293.293-.293.293a1,1,0,0,0,1.416,1.416l.293-.293.293.293a1,1,0,1,0,1.416-1.416Zm0,0" transform="translate(-103.407 -106.959)" fill="#315588"/>
          <path id="Path_43346" data-name="Path 43346" d="M295.064,104.062a1.028,1.028,0,0,0-1.334-.5l-.561.232.43-.429a1.03,1.03,0,0,0,.051-1.423,1,1,0,0,0-1.437-.022l-.459.458.248-.6a1,1,0,1,0-1.85-.766l-.544,1.312a1,1,0,0,0,.076.914,1.083,1.083,0,0,1-.137,1.346l-.009.008a1.035,1.035,0,0,0-.012,1.463,1,1,0,0,0,1.4-.017,1.1,1.1,0,0,1,1.394-.17,1,1,0,0,0,.9.07l1.312-.544a1,1,0,0,0,.529-1.336Zm0,0" transform="translate(-251.219 -87.204)" fill="#28d05b"/>
          <path id="Path_43347" data-name="Path 43347" d="M237.85,130.025a2,2,0,0,0-1.991.579l-3.284-1.025-2.43,2.551-1.031,3.848-.035-.011a2,2,0,1,0,1.414,2.453,1.975,1.975,0,0,0,.029-.934,2,2,0,0,0,3.849-1.1,2,2,0,1,0,3.339-1.971,2.006,2.006,0,0,0-.872-.511,2,2,0,0,0,1.013-3.874Zm0,0" transform="translate(-196.782 -112.55)" fill="#d9435b"/>
          <path id="Path_43348" data-name="Path 43348" d="M241.883,110.978a2,2,0,0,0-2.451,2.451,2,2,0,1,0-2.406,2.465,2,2,0,1,0,1.37,1.4,2,2,0,0,0,1.934,1.483h.009a2,2,0,0,0,1.407-3.417,1.981,1.981,0,0,0-.889-.516,2,2,0,0,0,1.027-3.87Zm0,0" transform="translate(-203.645 -96.334)" fill="#ff5368"/>
        </g>
      </g>
    </g>
  </g>
</svg>
