<svg id="jpg" xmlns="http://www.w3.org/2000/svg" width="46.817" height="53.505" viewBox="0 0 46.817 53.505">
  <path id="Path_11209" data-name="Path 11209" d="M99.344,0A3.354,3.354,0,0,0,96,3.344V50.161A3.354,3.354,0,0,0,99.344,53.5h33.441a3.354,3.354,0,0,0,3.344-3.344V13.376L122.752,0Z" transform="translate(-89.312)" fill="#e2e5e7"/>
  <path id="Path_11210" data-name="Path 11210" d="M355.344,13.376h10.032L352,0V10.032A3.354,3.354,0,0,0,355.344,13.376Z" transform="translate(-318.559)" fill="#b0b7bd"/>
  <path id="Path_11211" data-name="Path 11211" d="M394.032,138.032,384,128h10.032Z" transform="translate(-347.215 -114.624)" fill="#cad1d8"/>
  <path id="Path_11212" data-name="Path 11212" d="M72.129,258.392a1.677,1.677,0,0,1-1.672,1.672H33.672A1.677,1.677,0,0,1,32,258.392v-16.72A1.677,1.677,0,0,1,33.672,240H70.457a1.677,1.677,0,0,1,1.672,1.672Z" transform="translate(-32 -214.92)" fill="#50bee8"/>
  <g id="Group_25278" data-name="Group 25278" transform="translate(6.834 30.64)">
    <path id="Path_11213" data-name="Path 11213" d="M102.052,295.931a.884.884,0,0,1,1.766,0v5.28c0,2.1-1,3.371-3.316,3.371a3.357,3.357,0,0,1-2.914-1.378c-.682-.816.6-1.991,1.3-1.137a1.989,1.989,0,0,0,1.751.829c.747-.027,1.4-.363,1.418-1.685v-5.28Z" transform="translate(-97.394 -294.891)" fill="#fff"/>
    <path id="Path_11214" data-name="Path 11214" d="M181.344,295.243a.92.92,0,0,1,.91-.923h3.088a3.343,3.343,0,0,1,0,6.685H183.11v1.766a.839.839,0,0,1-.856.921.9.9,0,0,1-.91-.921v-7.527Zm1.766.761v3.331h2.232a1.666,1.666,0,0,0,0-3.331Z" transform="translate(-172.571 -294.203)" fill="#fff"/>
    <path id="Path_11215" data-name="Path 11215" d="M273.257,301.661a5.065,5.065,0,0,1-3.289,1.124c-2.809,0-4.8-1.6-4.8-4.787a4.765,4.765,0,0,1,4.919-4.8,4.376,4.376,0,0,1,3.048,1.175.867.867,0,0,1-1.162,1.284,2.825,2.825,0,0,0-1.886-.843,3.186,3.186,0,0,0-3.18,3.18,2.959,2.959,0,0,0,3.061,3.184,3.413,3.413,0,0,0,2-.6v-1.644h-2a.817.817,0,1,1,0-1.632h2.674a.914.914,0,0,1,.948.789v2.847A1.076,1.076,0,0,1,273.257,301.661Z" transform="translate(-247.635 -293.2)" fill="#fff"/>
  </g>
  <path id="Path_11216" data-name="Path 11216" d="M127.769,417.672H96v1.672h31.769a1.677,1.677,0,0,0,1.672-1.672V416A1.677,1.677,0,0,1,127.769,417.672Z" transform="translate(-89.312 -372.527)" fill="#cad1d8"/>
</svg>
