<svg xmlns="http://www.w3.org/2000/svg" xmlns:xlink="http://www.w3.org/1999/xlink" width="71.986" height="60.458" viewBox="0 0 71.986 60.458">
  <defs>
    <linearGradient id="linear-gradient" x1="0.5" x2="0.5" y2="1" gradientUnits="objectBoundingBox">
      <stop offset="0" stop-color="#0b7f8c"/>
      <stop offset="1" stop-color="#085860"/>
    </linearGradient>
  </defs>
  <g id="Group_66705" data-name="Group 66705" transform="translate(-238.007 -672.852)">
    <g id="Group_48767" data-name="Group 48767" transform="translate(165.492)">
      <g id="Group_48862" data-name="Group 48862">
        <g id="food" transform="translate(72.515 631.854)">
          <path id="Path_15797" data-name="Path 15797" d="M28.674,277.675a11.848,11.848,0,0,1,1.047-4.252,12.952,12.952,0,0,1-1.047-4.472,8.86,8.86,0,0,0-3.539,8.724Z" transform="translate(-21.485 -195.903)" fill="#f1786b"/>
          <path id="Path_15798" data-name="Path 15798" d="M85.659,208.436a12.022,12.022,0,0,1,7.709-6.708,8.854,8.854,0,0,0-12.315,9.1A12.036,12.036,0,0,1,85.659,208.436Z" transform="translate(-69.612 -137.507)" fill="#f1786b"/>
          <path id="Path_15799" data-name="Path 15799" d="M89.124,219.127l-.2,0a7.762,7.762,0,0,0-5.631,2.434,7.646,7.646,0,0,0-2.071,4.6h32a14.283,14.283,0,0,1-.252-2.671,23.961,23.961,0,0,1,3.147-11c-.228-.038-.458-.067-.693-.086a7.729,7.729,0,0,0-3,.346,7.734,7.734,0,0,0-13.253,0,7.737,7.737,0,0,0-10.043,6.38Z" transform="translate(-69.801 -144.382)" fill="#f1786b"/>
          <path id="Path_15800" data-name="Path 15800" d="M391,305.391a2.375,2.375,0,0,0,.571,1.547h3.639a2.389,2.389,0,1,0-4.21-1.547Z" transform="translate(-336.026 -225.166)" fill="#f1786b"/>
          <path id="Path_15801" data-name="Path 15801" d="M337.364,226.154h3.194a6.522,6.522,0,0,1-.184-1.547,6.608,6.608,0,1,1,13.216,0,6.523,6.523,0,0,1-.184,1.547H356.6a9.915,9.915,0,0,0,.364-2.671c0-4.973-3.888-14.482-9.983-14.482S337,218.51,337,223.483A9.914,9.914,0,0,0,337.364,226.154Z" transform="translate(-289.618 -144.382)" fill="#f1786b"/>
          <path id="Path_15802" data-name="Path 15802" d="M69.877,361H2.109a2.109,2.109,0,0,0,0,4.218h.962l2.909,7.27a6.3,6.3,0,0,0,5.874,3.978H60.132a6.3,6.3,0,0,0,5.874-3.978l2.909-7.27h.962a2.109,2.109,0,1,0,0-4.218Z" transform="translate(0 -275.011)" fill="#44b4bf"/>
          <path id="Path_15803" data-name="Path 15803" d="M234.918,52.458l-.485.727a2.109,2.109,0,1,0,3.509,2.34l.485-.727a6.006,6.006,0,0,0-.748-7.558A1.776,1.776,0,0,1,237.458,45l.485-.727a2.109,2.109,0,0,0-3.509-2.34l-.485.727a6.006,6.006,0,0,0,.748,7.558,1.777,1.777,0,0,1,.221,2.236Z" transform="translate(-200.195)" opacity="0.35" fill="url(#linear-gradient)"/>
          <path id="Path_15804" data-name="Path 15804" d="M146.918,76.458l-.485.727a2.109,2.109,0,1,0,3.509,2.34l.485-.727a6.006,6.006,0,0,0-.748-7.558A1.776,1.776,0,0,1,149.458,69l.485-.727a2.109,2.109,0,0,0-3.509-2.34l-.485.727a6.006,6.006,0,0,0,.748,7.558A1.777,1.777,0,0,1,146.918,76.458Z" transform="translate(-124.568 -20.626)" opacity="0.35" fill="url(#linear-gradient)"/>
          <path id="Path_15805" data-name="Path 15805" d="M322.918,76.458l-.485.727a2.109,2.109,0,1,0,3.509,2.34l.485-.727a6.006,6.006,0,0,0-.748-7.558A1.776,1.776,0,0,1,325.458,69l.485-.727a2.109,2.109,0,1,0-3.509-2.34l-.485.727a6.006,6.006,0,0,0,.748,7.558A1.777,1.777,0,0,1,322.918,76.458Z" transform="translate(-275.822 -20.626)" opacity="0.35" fill="url(#linear-gradient)"/>
        </g>
      </g>
    </g>
  </g>
</svg>
