<svg xmlns="http://www.w3.org/2000/svg" width="71" height="71" viewBox="0 0 71 71">
  <g id="Group_48858" data-name="Group 48858" transform="translate(-239 -663)">
    <g id="christmas-dinner_1_" data-name="christmas-dinner (1)" transform="translate(239 663)">
      <path id="Path_43279" data-name="Path 43279" d="M94.942,211.544c0,10.758-12.909,10.758-21.514,10.758l-7.508-.683-4.326-.393c-12.909,0-24.893-4.008-27.182-12.62s6.262-18.361,19.1-21.771a37.044,37.044,0,0,1,10.563-1.164c9.753.3,18.764,4.259,20.444,10.584a10.979,10.979,0,0,1,.357,2.326C91.578,201.176,94.942,205.089,94.942,211.544Z" transform="translate(-29.321 -159.908)" fill="#c76d33"/>
      <path id="Path_43280" data-name="Path 43280" d="M65.919,221.62l-4.326-.393c-12.909,0-24.893-4.008-27.182-12.62s6.262-18.361,19.1-21.771a37.044,37.044,0,0,1,10.563-1.164c-4.433,4.028-14.377,16.1.334,33.936C64.993,220.317,65.494,220.987,65.919,221.62Z" transform="translate(-29.32 -159.908)" fill="#af602d"/>
      <path id="Path_43281" data-name="Path 43281" d="M63.355,280.058a2.143,2.143,0,0,0-2.72-2.808c-5.208,1.871-14.523,6.424-14.074,14.959C47.184,304.026,69.4,296.393,67.99,290c-.584-2.639-2.547-3.551-4.651-3.713a2.149,2.149,0,0,1-1.575-3.423A12.956,12.956,0,0,0,63.355,280.058Z" transform="translate(-40.091 -238.69)" fill="#a05423"/>
      <path id="Path_43282" data-name="Path 43282" d="M396.7,155.861a4.267,4.267,0,0,1,5.585.766,4.4,4.4,0,0,1,1.076,3.1,2.15,2.15,0,0,0,1.337,2.091,4.39,4.39,0,0,1,2.217,2.046,4.3,4.3,0,0,1-6.514,5.325,2.117,2.117,0,0,0-2.45-.107L394,171.588l-3.459-5.45,3.714-2.358a2.139,2.139,0,0,0,.827-2.637,4.308,4.308,0,0,1,1.615-5.283Z" transform="translate(-336.386 -133.637)" fill="#fbf198"/>
      <path id="Path_43283" data-name="Path 43283" d="M239.322,226.079a9.659,9.659,0,0,1,4-1.541,34.285,34.285,0,0,0,9.289-2.8l.671-.305a6.178,6.178,0,0,1,6.559,10.333l-.817.694a35.6,35.6,0,0,0-6.317,7.125,9.683,9.683,0,1,1-13.384-13.507Z" transform="translate(-202.446 -190.248)" fill="#af602d"/>
      <path id="Path_43284" data-name="Path 43284" d="M188.565,332.405c-1.1,2.982-3.37,5.041-5.621,5.382l-3.2.221-7.535.52c-2.274-.029-4.8-1.757-6.306-4.558-1.41-2.623-1.542-5.475-.54-7.4l5.741-2.249a2.114,2.114,0,0,0,1.344-1.64c.4-2.383,1.715-4.441,3.742-4.58,2.053-.141,3.629,1.73,4.342,4.032a2.139,2.139,0,0,0,2.749,1.346,4.247,4.247,0,0,1,2.857-.006c2.786,1.034,3.87,5.032,2.424,8.931Z" transform="translate(-141.872 -273.984)" fill="#00c755"/>
      <path id="Path_43285" data-name="Path 43285" d="M179.747,376.664l-7.535.52c-2.274-.029-4.8-1.757-6.306-4.558-1.969-3.663-1.444-7.772,1.173-9.18a4.262,4.262,0,0,1,2.879-.379,2.128,2.128,0,0,0,1.149-.09,38.047,38.047,0,0,0,5.853,9.36A17.935,17.935,0,0,1,179.747,376.664Z" transform="translate(-141.872 -312.64)" fill="#00b730"/>
      <path id="Path_43286" data-name="Path 43286" d="M17.21,342.778a5.658,5.658,0,0,1-3.261,4.5l-7.443,1.889a5.658,5.658,0,0,1-5.01-2.4c-1.85-2.322-2-5.275-.346-6.6a3.041,3.041,0,0,1,1.974-.633A1.5,1.5,0,0,0,4.654,338c-.025-1.725.639-3.337,2.045-3.694,1.423-.361,2.768.753,3.563,2.278a1.526,1.526,0,0,0,2.1.6,3.032,3.032,0,0,1,2.006-.368c2.088.371,3.359,3.04,2.841,5.963Z" transform="translate(0 -287.892)" fill="#00b730"/>
      <circle id="Ellipse_17990" data-name="Ellipse 17990" cx="5.379" cy="5.379" r="5.379" transform="translate(36.576 47.333)" fill="#f85647"/>
      <circle id="Ellipse_17991" data-name="Ellipse 17991" cx="5.379" cy="5.379" r="5.379" transform="translate(15.061 51.636)" fill="#e83826"/>
      <path id="Path_43287" data-name="Path 43287" d="M332.775,336.984a5.658,5.658,0,0,1-4.429,3.352l-7.67-.361a5.658,5.658,0,0,1-4.1-3.753c-1.093-2.76-.381-5.63,1.59-6.411a3.041,3.041,0,0,1,2.073-.03,1.5,1.5,0,0,0,1.91-1.021c.479-1.657,1.583-3.007,3.032-2.938,1.467.069,2.429,1.526,2.745,3.217a1.526,1.526,0,0,0,1.838,1.181,3.032,3.032,0,0,1,2.026.232C333.683,331.415,334.123,334.339,332.775,336.984Z" transform="translate(-272.238 -280.637)" fill="#00c755"/>
      <path id="Path_43288" data-name="Path 43288" d="M87.821,434.428,85.673,439.8a8.572,8.572,0,0,1-7.96,5.389H33.383a8.572,8.572,0,0,1-7.959-5.389l-2.147-5.368Z" transform="translate(-20.048 -374.185)" fill="#daf2fd"/>
      <path id="Path_43289" data-name="Path 43289" d="M52.745,445.185H33.383a8.572,8.572,0,0,1-7.959-5.389l-2.147-5.368H51.121C50.18,436.906,49.808,440.662,52.745,445.185Z" transform="translate(-20.048 -374.185)" fill="#c2eafb"/>
      <path id="Path_43290" data-name="Path 43290" d="M71,414.381a3.224,3.224,0,0,1-3.227,3.226H3.228A3.227,3.227,0,0,1,.9,412.145l16.426,1.2,15.7-2.2H67.772A3.227,3.227,0,0,1,71,414.381Z" transform="translate(0 -354.138)" fill="#c2eafb"/>
      <path id="Path_43291" data-name="Path 43291" d="M33.024,411.153a10.412,10.412,0,0,0-2.622,6.454H3.228a3.227,3.227,0,1,1,0-6.454h29.8Z" transform="translate(0 -354.138)" fill="#a8e1f6"/>
      <path id="Path_43292" data-name="Path 43292" d="M236.117,0A1.069,1.069,0,0,0,235.1,1.4a5.818,5.818,0,0,1-.683,5.054,5.818,5.818,0,0,0,0,6.454,5.819,5.819,0,0,1,.393,5.768.481.481,0,0,0,.436.687,4.157,4.157,0,0,0,3.512-6.4l-.039-.059a5.818,5.818,0,0,1,0-6.454,5.81,5.81,0,0,0,.935-2.532A3.538,3.538,0,0,0,236.117,0Z" transform="translate(-201.067)" fill="#daf2fd"/>
      <path id="Path_43293" data-name="Path 43293" d="M159.372,0a1.069,1.069,0,0,0-1.019,1.4,5.818,5.818,0,0,1-.683,5.054,5.818,5.818,0,0,0,0,6.454,5.819,5.819,0,0,1,.393,5.768.481.481,0,0,0,.436.687,4.157,4.157,0,0,0,3.512-6.4l-.039-.059a5.818,5.818,0,0,1,0-6.454,5.809,5.809,0,0,0,.935-2.532A3.538,3.538,0,0,0,159.372,0Z" transform="translate(-134.964)" fill="#c2eafb"/>
      <path id="Path_43294" data-name="Path 43294" d="M312.982,0a1.069,1.069,0,0,0-1.019,1.4,5.818,5.818,0,0,1-.683,5.054,5.818,5.818,0,0,0,0,6.454,5.819,5.819,0,0,1,.393,5.768.481.481,0,0,0,.436.687,4.157,4.157,0,0,0,3.512-6.4l-.039-.059a5.818,5.818,0,0,1,0-6.454,5.81,5.81,0,0,0,.935-2.532A3.538,3.538,0,0,0,312.982,0Z" transform="translate(-267.273)" fill="#daf2fd"/>
    </g>
  </g>
</svg>
