<svg xmlns="http://www.w3.org/2000/svg" width="44.198" height="64.909" viewBox="0 0 44.198 64.909">
  <g id="Group_66707" data-name="Group 66707" transform="translate(-252.401 -667.517)">
    <g id="Layer_x0020_1" transform="translate(252.129 667.517)">
      <g id="_506193944" transform="translate(0.272 0)">
        <path id="_506195984" d="M28.472,16.659a.761.761,0,0,1-.647-.36c-2.184-3.527-6.549-5.316-12.975-5.316S4.059,12.771,1.875,16.3a.761.761,0,0,1-1.407-.407L.523,9.136C1.006,2.843,8.288,0,14.85,0S28.7,2.842,29.175,9.084l.057,6.808a.761.761,0,0,1-.55.737.744.744,0,0,1-.211.03Z" transform="translate(6.964 0)" fill="#44b4bf" fill-rule="evenodd"/>
        <path id="_506195768" d="M18.446,37.86a6.761,6.761,0,0,1-6.767-5.4L8.129,33.831a.757.757,0,0,1-.48.022c-2.384-.671-6.5-2.364-7.257-6.165a.761.761,0,0,1,.765-.91A3.255,3.255,0,0,0,3.6,25.714c.568-.8.55-2.074-.053-3.771-.843-2.372-3.285-10.55.7-16.2C6.822,2.1,11.5.249,18.16.249S29.5,2.1,32.071,5.742c3.987,5.65,1.546,13.829.7,16.2-.6,1.7-.621,2.966-.053,3.771a3.251,3.251,0,0,0,2.433,1.065.792.792,0,0,1,.6.278.768.768,0,0,1,.171.631c-.733,3.666-4.638,5.371-6.9,6.061a.767.767,0,0,1-.5-.018l-3.319-1.279a6.754,6.754,0,0,1-6.766,5.408Z" transform="translate(3.654 9.212)" fill="#414042" fill-rule="evenodd"/>
        <g id="Group_48920" data-name="Group 48920" transform="translate(18.915 1.947)">
          <path id="_506196416" d="M5.809,1.629H1.53a.761.761,0,1,1,0-1.521H5.809a.761.761,0,0,1,0,1.521Z" transform="translate(-0.77 2.033)" fill="#fff" fill-rule="evenodd"/>
          <path id="_506195720" d="M1.586,5.852a.761.761,0,0,1-.761-.761V.812a.761.761,0,1,1,1.521,0v4.28A.761.761,0,0,1,1.586,5.852Z" transform="translate(1.314 -0.051)" fill="#fff" fill-rule="evenodd"/>
        </g>
        <path id="_506196392" d="M38.255,26.092H6.489V21.749H.272V10.318C.272,7.165,3.491,5.91,6.077,4.9L16,1.08l.056-.019a6.333,6.333,0,0,0,12.639-.012l.055.019L38.689,4.9c2.576.994,5.782,2.23,5.782,5.4V21.749H38.255v4.344Z" transform="translate(-0.272 38.816)" fill="#44b4bf" fill-rule="evenodd"/>
        <g id="Group_48923" data-name="Group 48923" transform="translate(0 42.15)">
          <g id="Group_48921" data-name="Group 48921" transform="translate(0 15.561)">
            <path id="_506195264" d="M1.957,8.714H.436V2.278a.761.761,0,0,1,1.521,0Z" transform="translate(5.781 -1.517)" fill="#0a737e" fill-rule="evenodd"/>
            <path id="_506195024" d="M.272,3.074V1.552H7.25a.761.761,0,1,1,0,1.521Z" transform="translate(-0.272 -0.221)" fill="#0a737e" fill-rule="evenodd"/>
            <path id="_506195000" d="M2.752,8.714H1.231V2.278a.761.761,0,1,1,1.521,0Z" transform="translate(35.23 -1.517)" fill="#0a737e" fill-rule="evenodd"/>
            <path id="_506195552" d="M8.968,1.552V3.074H1.991a.761.761,0,0,1,0-1.521Z" transform="translate(35.23 -0.221)" fill="#0a737e" fill-rule="evenodd"/>
          </g>
          <g id="Group_48922" data-name="Group 48922" transform="translate(8.275)">
            <path id="_506195648" d="M2.205,23.079H.685V13.368a.76.76,0,0,1,.384-.661L21.455,1.13l1.835.707L2.205,13.81v9.269Z" transform="translate(6.723 -0.321)" fill="#0a737e" fill-rule="evenodd"/>
            <path id="_506194784" d="M.49,1.723l1.6-.615L13.006,10.83A.76.76,0,1,1,12,11.968L.49,1.723Z" transform="translate(-0.49 -1.108)" fill="#0a737e" fill-rule="evenodd"/>
          </g>
          <path id="_506194472" d="M2.717,3.025H1.529a.761.761,0,1,1,0-1.521H2.717a.761.761,0,0,1,0,1.521Z" transform="translate(18.082 13.525)" fill="#0a737e" fill-rule="evenodd"/>
          <path id="_506194208" d="M2.717,3.116H1.529a.761.761,0,1,1,0-1.521H2.717a.761.761,0,0,1,0,1.521Z" transform="translate(18.082 16.9)" fill="#0a737e" fill-rule="evenodd"/>
          <path id="_506194256" d="M6.735,2.872H1.189a.761.761,0,1,1,0-1.521H6.735a.761.761,0,1,1,0,1.521Z" transform="translate(5.493 7.887)" fill="#0a737e" fill-rule="evenodd"/>
          <path id="_506194520" d="M7.4,2.872H1.853a.761.761,0,0,1,0-1.521H7.4a.761.761,0,1,1,0,1.521Z" transform="translate(30.117 7.887)" fill="#0a737e" fill-rule="evenodd"/>
        </g>
        <path id="_506194640" d="M6.489,1.592H.272V5.175a.761.761,0,0,0,.761.761H6.489V1.592Z" transform="translate(-0.272 58.972)" fill="#ffcfbf" fill-rule="evenodd"/>
        <path id="_506194232" d="M1.271,1.592V5.936H6.726a.76.76,0,0,0,.76-.761V1.592H1.271Z" transform="translate(36.712 58.972)" fill="#ffcfbf" fill-rule="evenodd"/>
        <path id="_506194568" d="M13.326,5.415,12.124.931C10.493,2.4,8.583,2.405,6.489,2.405c-1.759,0-3.333.293-4.784-.791L.687,5.417a6.334,6.334,0,0,0,12.639,0,0,0,0,0,1,0,0Z" transform="translate(15.093 34.46)" fill="#ffbaac" fill-rule="evenodd"/>
        <path id="_506193968" d="M11,23.195C5.22,23.195.566,16.067.566,10.166q0-.412.032-.815a.758.758,0,0,1,.163-.414A15.427,15.427,0,0,1,9.014,3.3,12.362,12.362,0,0,0,14.027.605a.76.76,0,0,1,.8-.152c.09.035.18.073.269.111a.761.761,0,0,1,.464.727c-.063,1.825,3.267,4.894,5.38,6.4a.762.762,0,0,1,.306.475,10.53,10.53,0,0,1,.192,2c0,5.9-4.656,13.029-10.436,13.029Z" transform="translate(10.606 14.834)" fill="#ffcfbf" fill-rule="evenodd"/>
      </g>
    </g>
  </g>
</svg>
