<svg xmlns="http://www.w3.org/2000/svg" width="42.566" height="56.934" viewBox="0 0 42.566 56.934">
  <g id="pdf-file_1_" data-name="pdf-file (1)" transform="translate(0)">
    <path id="Path_11202" data-name="Path 11202" d="M108.654,15.348,95.318,2H68.252A2.152,2.152,0,0,0,66.1,4.152V42.335h42.554Z" transform="translate(-66.1 -2)" fill="#eff3f5"/>
    <path id="Path_11203" data-name="Path 11203" d="M326.8,13.2a2.152,2.152,0,0,0,2.152,2.152h11.2L326.8,2Z" transform="translate(-297.582 -2)" fill="#dbdfe0"/>
    <path id="Path_11204" data-name="Path 11204" d="M66.2,361.8v14.457a2.152,2.152,0,0,0,2.152,2.152H106.6a2.152,2.152,0,0,0,2.152-2.152V361.8Z" transform="translate(-66.189 -321.476)" fill="#f1786b"/>
    <g id="Group_25270" data-name="Group 25270" transform="translate(7.386 5.234)">
      <path id="Path_11205" data-name="Path 11205" d="M134.987,81.347a3.022,3.022,0,0,1-1.95-.762,2.523,2.523,0,0,1-1-2.432c.493-2.88,5.85-5.514,8.966-6.814a102.407,102.407,0,0,0,4.068-12.967c-1.816-3.889-2.454-6.635-1.894-8.193a2.2,2.2,0,0,1,1.659-1.457l.112-.022.112.011A2.421,2.421,0,0,1,146.6,49.72c.841,1.143,1.031,2.992.56,5.5-.134.717-.359,1.748-.65,2.981a70.959,70.959,0,0,0,5.9,9.907,18.517,18.517,0,0,1,4.382-.168c2.387.247,2.892,1.289,2.981,1.894a2.3,2.3,0,0,1-1.625,2.275c-1.535.65-4.046.482-6.086-2.163-.09-.112-.179-.235-.269-.359a48.65,48.65,0,0,0-8.764,2.421c-.325.123-.639.247-.953.37-2.1,5.133-4.147,8.081-6.108,8.787a2.68,2.68,0,0,1-.975.179Zm5.267-8.193c-4.449,2.006-6.657,3.99-6.859,5.234a1.15,1.15,0,0,0,.527,1.154,1.517,1.517,0,0,0,1.591.347C137.071,79.33,138.73,76.64,140.254,73.155Zm13.113-3.777c1.513,1.782,3.217,1.928,4.248,1.479.538-.224.841-.605.807-.818s-.538-.605-1.771-.728A16.5,16.5,0,0,0,153.367,69.378Zm-7.352-9.123c-.684,2.634-1.614,5.805-2.7,8.876-.191.527-.37,1.031-.56,1.524a52.9,52.9,0,0,1,8.159-2.3A74.1,74.1,0,0,1,146.015,60.255Zm-1.009-10.143a.81.81,0,0,0-.527.549c-.392,1.076.123,3.1,1.121,5.5q.135-.639.235-1.177c.516-2.791.022-3.99-.325-4.449A1.254,1.254,0,0,0,145.006,50.112Z" transform="translate(-132.006 -48.7)" fill="#f1786b"/>
    </g>
    <g id="Group_25271" data-name="Group 25271" transform="translate(10.277 43.406)">
      <g id="Group_26737" data-name="Group 26737">
        <path id="Path_11206" data-name="Path 11206" d="M312.3,393.66h-2.566v-2.611H312.3a.874.874,0,1,0,0-1.748h-3.429a.875.875,0,0,0-.874.874v8.7a.874.874,0,0,0,1.748,0V395.4h2.566a.869.869,0,1,0-.011-1.737Z" transform="translate(-291.167 -389.3)" fill="#eff3f5"/>
        <path id="Path_11207" data-name="Path 11207" d="M160.445,389.4h-1.771a.875.875,0,0,0-.874.874v8.7a.874.874,0,0,0,1.748,0V395.5h.9a3.048,3.048,0,1,0,0-6.1Zm0,4.348h-.9v-2.611h.9a1.306,1.306,0,0,1,0,2.611Z" transform="translate(-157.8 -389.389)" fill="#eff3f5"/>
        <path id="Path_11208" data-name="Path 11208" d="M223.36,389.4h-2.286a.875.875,0,0,0-.874.874v8.7a.875.875,0,0,0,.874.874h2.286a5.223,5.223,0,1,0,0-10.445Zm0,8.686h-1.412v-6.96h1.412a3.48,3.48,0,0,1,0,6.96Z" transform="translate(-213.207 -389.389)" fill="#eff3f5"/>
      </g>
    </g>
  </g>
</svg>
