<svg id="refill_2_" data-name="refill (2)" xmlns="http://www.w3.org/2000/svg" width="45.407" height="45.406" viewBox="0 0 45.407 45.406">
  <path id="Path_13742" data-name="Path 13742" d="M23.745,14.04l-4.73-4.73L9.31,19.016l4.73,4.73a6.863,6.863,0,0,0,9.706-9.706Z" transform="translate(8.304 8.304)" fill="#cdd0d2"/>
  <path id="Path_13743" data-name="Path 13743" d="M17.711,8.005a6.863,6.863,0,0,0-9.706,9.706l4.257,4.257,9.708-9.706Z" transform="translate(5.352 5.352)" fill="#f1786b"/>
  <path id="Path_13744" data-name="Path 13744" d="M14.153,11.88,9.31,16.723l4.73,4.73a6.856,6.856,0,0,0,9.685.006Z" transform="translate(8.304 10.596)" fill="#cdd0d2"/>
  <path id="Path_13745" data-name="Path 13745" d="M8.007,7.067a6.856,6.856,0,0,0,0,9.692l4.257,4.257,4.845-4.843Z" transform="translate(5.352 6.303)" fill="#f1786b"/>
  <g id="Group_65851" data-name="Group 65851">
    <path id="Path_13746" data-name="Path 13746" d="M2.838,22.7A19.887,19.887,0,0,1,22.7,2.838,19.633,19.633,0,0,1,35.688,7.712L34.471,8.93a1.419,1.419,0,0,0,1,2.422H40.2a1.419,1.419,0,0,0,1.419-1.419V5.2a1.42,1.42,0,0,0-2.422-1L37.695,5.706A22.437,22.437,0,0,0,22.7,0,22.695,22.695,0,0,0,.971,29.261a1.419,1.419,0,1,0,2.717-.819A19.835,19.835,0,0,1,2.838,22.7Z" fill="#44b4bf"/>
    <path id="Path_13747" data-name="Path 13747" d="M42.652,9.011a1.419,1.419,0,1,0-2.717.819,19.858,19.858,0,0,1-19.016,25.6A19.633,19.633,0,0,1,7.935,30.56l1.217-1.218a1.419,1.419,0,0,0-1-2.422H3.419A1.419,1.419,0,0,0,2,28.339v4.73a1.42,1.42,0,0,0,2.422,1l1.506-1.506a22.437,22.437,0,0,0,14.992,5.706A22.695,22.695,0,0,0,42.652,9.011Z" transform="translate(1.784 7.135)" fill="#44b4bf"/>
    <path id="Path_13748" data-name="Path 13748" d="M22.7,0A22.695,22.695,0,0,0,.971,29.261a1.419,1.419,0,1,0,2.717-.819A19.858,19.858,0,0,1,22.7,2.838Z" fill="#44b4bf"/>
    <path id="Path_13749" data-name="Path 13749" d="M8.149,18H3.419A1.419,1.419,0,0,0,2,19.419v4.73a1.419,1.419,0,0,0,1.432,1.419,1.383,1.383,0,0,0,.989-.416l1.506-1.506a22.437,22.437,0,0,0,14.992,5.706V26.514A19.633,19.633,0,0,1,7.935,21.64l1.217-1.218a1.419,1.419,0,0,0-1-2.422Z" transform="translate(1.784 16.055)" fill="#44b4bf"/>
  </g>
</svg>
