<svg xmlns="http://www.w3.org/2000/svg" width="277.556" height="277.596" viewBox="0 0 277.556 277.596">
  <g id="Group_66701" data-name="Group 66701" transform="translate(-73 -596.948)">
    <g id="Group_27005" data-name="Group 27005" transform="translate(73 596.949)">
      <g id="upload-file" transform="translate(0)">
        <path id="Path_15028" data-name="Path 15028" d="M74.7,66.679H227.871A8.028,8.028,0,0,1,235.9,74.7V279.027a8.029,8.029,0,0,1-8.025,8.025H74.7a8.028,8.028,0,0,1-8.025-8.024V74.7A8.029,8.029,0,0,1,74.7,66.679Z" transform="translate(-38.428 -38.428)" fill="#8a96bf"/>
        <g id="Group_27003" data-name="Group 27003" transform="translate(0 0)">
          <path id="Path_15029" data-name="Path 15029" d="M66.679,279.028V116.414a12.111,12.111,0,0,1,3.672-8.865l37.2-37.2a12.111,12.111,0,0,1,8.865-3.673H227.87a5.084,5.084,0,0,1,5.074,5.074v206.26a6.1,6.1,0,0,1-6.089,6.089H71.753a5.084,5.084,0,0,1-5.074-5.074Z" transform="translate(-38.428 -38.428)" fill="#a8b4db" fill-rule="evenodd"/>
          <path id="Path_15030" data-name="Path 15030" d="M11,223.349V60.735a12.11,12.11,0,0,1,3.672-8.865l37.2-37.2A12.11,12.11,0,0,1,60.735,11H172.191a8.04,8.04,0,0,1,8.025,8.024V223.349a8.04,8.04,0,0,1-8.025,8.025H19.025A8.041,8.041,0,0,1,11,223.349Z" transform="translate(-11 -11)" fill="#8a96bf" fill-rule="evenodd"/>
          <path id="Path_15031" data-name="Path 15031" d="M11,223.349V60.735a12.11,12.11,0,0,1,3.672-8.865l37.2-37.2A12.11,12.11,0,0,1,60.735,11H172.191a5.084,5.084,0,0,1,5.074,5.074v206.26a6.1,6.1,0,0,1-6.089,6.089H16.074A5.084,5.084,0,0,1,11,223.348Z" transform="translate(-11 -11)" fill="#d2dbfa" fill-rule="evenodd"/>
          <path id="Path_15032" data-name="Path 15032" d="M51.869,14.672A12.11,12.11,0,0,1,60.735,11h3.182a12.587,12.587,0,0,0-7.793,11.6V48.1A8.039,8.039,0,0,1,48.1,56.124H22.6A12.589,12.589,0,0,0,11,63.918V60.735a12.11,12.11,0,0,1,3.672-8.865Z" transform="translate(-11 -11)" fill="#8a96bf" fill-rule="evenodd"/>
          <path id="Path_15033" data-name="Path 15033" d="M51.869,14.672A12.11,12.11,0,0,1,60.735,11h3.182c-3.88.718-10.532,4.43-10.532,11.6V48.1A5.3,5.3,0,0,1,48.1,53.385H22.6c-3.454,0-9.49,1.414-11.6,10.532V60.735a12.111,12.111,0,0,1,3.672-8.865Z" transform="translate(-11 -11)" fill="#a8b4db" fill-rule="evenodd"/>
          <path id="Path_15034" data-name="Path 15034" d="M57.518,116.22a4.059,4.059,0,1,1,0-8.118h67.59a4.059,4.059,0,1,1,0,8.118ZM99,93.653a4.059,4.059,0,1,1,0-8.118h35.291a4.059,4.059,0,1,1,0,8.118Zm47.331,0a4.059,4.059,0,1,1,0-8.118h5.229a4.059,4.059,0,1,1,0,8.118Zm17.269,0a4.059,4.059,0,1,1,0-8.118h11.931a4.059,4.059,0,0,1,0,8.118ZM57.518,230.27a4.059,4.059,0,1,1,0-8.118H70.6a4.059,4.059,0,1,1,0,8.118Zm25.125,0a4.059,4.059,0,1,1,0-8.118h31.522a4.059,4.059,0,1,1,0,8.118ZM57.518,207.46a4.059,4.059,0,1,1,0-8.118H90.65a4.059,4.059,0,1,1,0,8.118Zm45.172,0a4.059,4.059,0,1,1,0-8.118h15.566a4.059,4.059,0,0,1,0,8.118ZM57.518,184.65a4.059,4.059,0,0,1,0-8.118H83.295a4.059,4.059,0,0,1,0,8.118Zm37.817,0a4.059,4.059,0,1,1,0-8.118h5.229a4.059,4.059,0,0,1,0,8.118Zm17.269,0a4.059,4.059,0,0,1,0-8.118h15.166a4.059,4.059,0,1,1,0,8.118Zm-55.085-22.81a4.059,4.059,0,1,1,0-8.118H70.6a4.059,4.059,0,1,1,0,8.118Zm25.125,0a4.059,4.059,0,1,1,0-8.118H142.8a4.059,4.059,0,1,1,0,8.118H82.643Zm-25.125-22.81a4.059,4.059,0,1,1,0-8.118h94.019a4.059,4.059,0,1,1,0,8.118H57.518Zm106.059,0a4.059,4.059,0,1,1,0-8.118h11.951a4.059,4.059,0,1,1,0,8.118Zm-26.429-22.81a4.059,4.059,0,1,1,0-8.118h.229a4.059,4.059,0,1,1,0,8.118Zm12.269,0a4.059,4.059,0,1,1,0-8.118h26.111a4.059,4.059,0,1,1,0,8.118Z" transform="translate(-31.915 -47.716)" fill="#8a96bf" fill-rule="evenodd"/>
        </g>
        <circle id="Ellipse_17913" data-name="Ellipse 17913" cx="69.978" cy="69.978" r="69.978" transform="translate(79.659 178.647) rotate(-45)" fill="#3254d1"/>
        <path id="Path_15035" data-name="Path 15035" d="M258.981,356.363a70,70,0,0,1,0-119.834,68.64,68.64,0,1,1,0,119.835Z" transform="translate(-116.501 -117.799)" fill="#0b7f8c" fill-rule="evenodd"/>
        <path id="Path_15036" data-name="Path 15036" d="M299.239,338.914v11a6.094,6.094,0,0,0,6.09,6.089h44.615a6.094,6.094,0,0,0,6.09-6.089v-11a4.058,4.058,0,1,1,8.117,0v11a14.223,14.223,0,0,1-14.207,14.207H305.328a14.223,14.223,0,0,1-14.207-14.207v-11a4.058,4.058,0,1,1,8.117,0Zm28.4,6.545a4.057,4.057,0,0,0,4.057-4.059V307.177l4.3,4.3a4.061,4.061,0,0,0,5.744-5.743L330.5,294.507a4.05,4.05,0,0,0-5.736,0l-11.235,11.229a4.061,4.061,0,0,0,5.743,5.743l4.3-4.3V341.4a4.061,4.061,0,0,0,4.06,4.059Z" transform="translate(-148.989 -150.07)" fill="#edeff3" fill-rule="evenodd"/>
      </g>
    </g>
  </g>
</svg>
